<svg width="205" height="61" viewBox="0 0 205 61" fill="none" xmlns="http://www.w3.org/2000/svg">
<path fill-rule="evenodd" clip-rule="evenodd" d="M197.405 61H7.59539C3.40925 61 0 57.5621 0 53.375V7.625C0 3.42269 3.40925 0 7.59539 0H197.405C201.587 0 205 3.42269 205 7.625V53.375C205 57.5621 201.587 61 197.405 61Z" fill="black"/>
<path fill-rule="evenodd" clip-rule="evenodd" d="M197.405 1.22076C200.916 1.22076 203.789 4.09963 203.789 7.625V53.375C203.789 56.9004 200.935 59.7792 197.405 59.7792H7.59539C4.08431 59.7792 1.21059 56.9004 1.21059 53.375V7.625C1.21059 4.09963 4.06545 1.22076 7.59539 1.22076H197.405ZM197.405 0H7.59539C3.40925 0 0 3.43791 0 7.625V53.375C0 57.5773 3.40925 61 7.59539 61H197.405C201.587 61 205 57.5773 205 53.375V7.625C205 3.43791 201.587 0 197.405 0Z" fill="#A6A6A6"/>
<path d="M107.995 20.1785C106.626 20.1785 105.472 19.6956 104.559 18.7448C103.654 17.8207 103.149 16.5467 103.171 15.2461C103.171 13.858 103.639 12.6828 104.559 11.7511C105.468 10.8004 106.622 10.3174 107.991 10.3174C109.345 10.3174 110.499 10.8004 111.427 11.7511C112.347 12.7133 112.814 13.8884 112.814 15.2461C112.799 16.638 112.332 17.8131 111.427 18.741C110.518 19.6994 109.364 20.1785 107.995 20.1785ZM67.2612 20.1785C65.9224 20.1785 64.7608 19.7032 63.8104 18.7638C62.8676 17.8283 62.3887 16.6456 62.3887 15.2499C62.3887 13.8542 62.8676 12.6714 63.8104 11.7359C64.7419 10.7966 65.9035 10.3212 67.2612 10.3212C67.9249 10.3212 68.5698 10.4543 69.1883 10.7243C69.7954 10.9867 70.2895 11.3442 70.6553 11.7815L70.7458 11.8918L69.7238 12.9034L69.6182 12.7779C69.0412 12.0858 68.2681 11.7473 67.2461 11.7473C66.3334 11.7473 65.5377 12.0744 64.8815 12.7209C64.2215 13.3712 63.8859 14.2231 63.8859 15.2537C63.8859 16.2843 64.2215 17.1361 64.8815 17.7865C65.5377 18.433 66.3334 18.76 67.2461 18.76C68.2191 18.76 69.0374 18.433 69.6748 17.7865C70.0519 17.4062 70.2857 16.8737 70.3687 16.2006H67.0914V14.7783H71.7754L71.7942 14.9076C71.8282 15.1472 71.8621 15.3944 71.8621 15.6226C71.8621 16.9346 71.4699 17.9956 70.693 18.779C69.8105 19.707 68.6565 20.1785 67.2612 20.1785ZM121.42 19.977H119.976L115.552 12.8388L115.59 14.1242V19.9732H114.146V10.5227H115.794L115.839 10.595L119.999 17.3187L119.961 16.0371V10.5227H121.42V19.977ZM97.1409 19.977H95.6777V11.9451H93.1396V10.5227H99.6752V11.9451H97.1372V19.977H97.1409ZM91.9479 19.977H90.4884V10.5227H91.9479V19.977ZM83.7454 19.977H82.2859V11.9451H79.7478V10.5227H86.2834V11.9451H83.7454V19.977ZM78.8239 19.9618H73.2273V10.5227H78.8239V11.9451H74.6906V14.5387H78.4203V15.9458H74.6906V18.5395H78.8239V19.9618ZM105.63 17.7674C106.282 18.4254 107.074 18.7562 107.995 18.7562C108.941 18.7562 109.714 18.433 110.359 17.7674C111 17.1209 111.325 16.2729 111.325 15.2499C111.325 14.2269 111 13.375 110.363 12.7323C109.711 12.0744 108.915 11.7435 107.998 11.7435C107.052 11.7435 106.279 12.0668 105.638 12.7323C104.996 13.3788 104.672 14.2269 104.672 15.2499C104.672 16.2729 104.993 17.1247 105.63 17.7674Z" fill="white"/>
<path fill-rule="evenodd" clip-rule="evenodd" d="M103.035 33.1775C99.4714 33.1775 96.5826 35.9042 96.5826 39.6654C96.5826 43.3923 99.4902 46.1533 103.035 46.1533C106.599 46.1533 109.488 43.4075 109.488 39.6654C109.488 35.9042 106.599 33.1775 103.035 33.1775ZM103.035 43.5825C101.085 43.5825 99.4073 41.9548 99.4073 39.6502C99.4073 37.3113 101.089 35.7179 103.035 35.7179C104.985 35.7179 106.663 37.3113 106.663 39.6502C106.667 41.97 104.985 43.5825 103.035 43.5825ZM88.957 33.1775C85.3931 33.1775 82.5043 35.9042 82.5043 39.6654C82.5043 43.3923 85.412 46.1533 88.957 46.1533C92.5209 46.1533 95.4097 43.4075 95.4097 39.6654C95.4097 35.9042 92.5171 33.1775 88.957 33.1775ZM88.957 43.5825C87.0072 43.5825 85.329 41.9548 85.329 39.6502C85.329 37.3113 87.011 35.7179 88.957 35.7179C90.9067 35.7179 92.585 37.3113 92.585 39.6502C92.585 41.97 90.9067 43.5825 88.957 43.5825ZM72.2049 35.1588V37.9046H78.7405C78.5407 39.4448 78.0353 40.5819 77.2622 41.3615C76.3043 42.3275 74.8259 43.3771 72.22 43.3771C68.2035 43.3771 65.062 40.1065 65.062 36.0563C65.062 32.0062 68.2035 28.7356 72.22 28.7356C74.3885 28.7356 75.9686 29.5989 77.1415 30.7017L79.0724 28.7546C77.4432 27.1802 75.2747 25.9746 72.235 25.9746C66.7252 25.9746 62.1016 30.5002 62.1016 36.0411C62.1016 41.5973 66.7214 46.1077 72.235 46.1077C75.2106 46.1077 77.4432 45.1265 79.2082 43.2782C81.0071 41.4642 81.5766 38.9048 81.5766 36.8398C81.5766 36.1971 81.5275 35.619 81.4257 35.1284H72.2011C72.2049 35.1246 72.2049 35.1588 72.2049 35.1588ZM140.726 37.2961C140.186 35.8396 138.557 33.1623 135.216 33.1623C131.905 33.1623 129.151 35.7901 129.151 39.6502C129.151 43.2934 131.874 46.1381 135.536 46.1381C138.478 46.1381 140.19 44.324 140.895 43.2592L138.712 41.7836C137.988 42.8675 136.981 43.5787 135.551 43.5787C134.107 43.5787 133.096 42.9169 132.425 41.6125L141.027 38.0187C141.027 38.0225 140.726 37.2961 140.726 37.2961ZM131.954 39.4638C131.886 36.9576 133.884 35.6836 135.314 35.6836C136.441 35.6836 137.38 36.2427 137.701 37.0565L131.954 39.4638ZM124.965 45.7502H127.79V26.6896H124.965V45.7502ZM120.327 34.6188H120.225C119.587 33.8544 118.377 33.1623 116.831 33.1623C113.621 33.1623 110.665 36.0107 110.665 39.6692C110.665 43.3124 113.606 46.1267 116.831 46.1267C118.358 46.1267 119.587 45.4307 120.225 44.6511H120.327V45.5828C120.327 48.0586 119.014 49.3934 116.899 49.3934C115.168 49.3934 114.093 48.1384 113.655 47.0888L111.2 48.1232C111.905 49.8346 113.787 51.9528 116.895 51.9528C120.206 51.9528 123.012 49.9867 123.012 45.1911V33.5502H120.342V34.6188C120.346 34.6188 120.327 34.6188 120.327 34.6188ZM117.083 43.5825C115.134 43.5825 113.504 41.9396 113.504 39.6692C113.504 37.3798 115.134 35.7217 117.083 35.7217C119.014 35.7217 120.511 37.3988 120.511 39.6692C120.53 41.9396 119.018 43.5825 117.083 43.5825ZM153.952 26.6896H147.197V45.7502H150.022V38.5321H153.955C157.082 38.5321 160.155 36.2465 160.155 32.6184C160.155 28.9904 157.093 26.6896 153.952 26.6896ZM154.035 35.87H150.018V29.3288H154.035C156.15 29.3288 157.346 31.0896 157.346 32.5994C157.346 34.094 156.135 35.87 154.035 35.87ZM171.477 33.1432C169.425 33.1432 167.31 34.0598 166.435 36.0563L168.939 37.106C169.478 36.0563 170.466 35.6989 171.511 35.6989C172.974 35.6989 174.452 36.5812 174.486 38.1556V38.3572C173.981 38.0681 172.872 37.627 171.545 37.627C168.841 37.627 166.099 39.1177 166.099 41.9129C166.099 44.4724 168.316 46.1153 170.787 46.1153C172.684 46.1153 173.728 45.252 174.381 44.2518H174.483V45.7274H177.205V38.4256C177.205 35.0257 174.701 33.1432 171.477 33.1432ZM171.122 43.5825C170.198 43.5825 168.905 43.1261 168.905 41.9548C168.905 40.4792 170.519 39.9202 171.895 39.9202C173.14 39.9202 173.728 40.1902 174.467 40.5629C174.264 42.2742 172.831 43.5673 171.122 43.5825ZM187.139 33.5502L183.896 41.8179H183.794L180.434 33.5502H177.394L182.436 45.1075L179.562 51.5307H182.504L190.262 33.5502H187.139ZM161.713 45.7502H164.538V26.6896H161.713V45.7502Z" fill="white"/>
<path fill-rule="evenodd" clip-rule="evenodd" d="M15.78 11.4884C15.3425 11.9638 15.0898 12.6902 15.0898 13.6409V47.362C15.0898 48.3128 15.3425 49.0392 15.7951 49.4955L15.912 49.5982L34.6478 30.7049V30.2828L15.8969 11.3857L15.78 11.4884Z" fill="url(#paint0_linear)"/>
<path fill-rule="evenodd" clip-rule="evenodd" d="M40.8799 37.0228L34.6309 30.7212V30.2801L40.8799 23.9785L41.0157 24.0622L48.4075 28.2987C50.5232 29.5005 50.5232 31.4856 48.4075 32.7026L41.0157 36.9391L40.8799 37.0228Z" fill="url(#paint1_linear)"/>
<path fill-rule="evenodd" clip-rule="evenodd" d="M41.0168 36.9385L34.632 30.5L15.7793 49.5112C16.4694 50.2565 17.6272 50.3402 18.9208 49.6138L41.0168 36.9385Z" fill="url(#paint2_linear)"/>
<path fill-rule="evenodd" clip-rule="evenodd" d="M41.0168 24.0612L18.9208 11.4049C17.6272 10.6595 16.4657 10.7622 15.7793 11.5076L34.632 30.4997L41.0168 24.0612Z" fill="url(#paint3_linear)"/>
<path opacity="0.2" fill-rule="evenodd" clip-rule="evenodd" d="M40.8797 36.8018L18.9345 49.3744C17.7088 50.0856 16.6151 50.0361 15.9099 49.3896L15.793 49.5075L15.9099 49.6102C16.6151 50.2529 17.7088 50.3061 18.9345 49.595L41.0306 36.9387L40.8797 36.8018Z" fill="black"/>
<path opacity="0.12" fill-rule="evenodd" clip-rule="evenodd" d="M48.4077 32.4814L40.8613 36.8016L40.9971 36.9385L48.3888 32.7019C49.4486 32.0935 49.969 31.2948 49.969 30.5C49.9049 31.2302 49.3656 31.9223 48.4077 32.4814Z" fill="black"/>
<path opacity="0.25" fill-rule="evenodd" clip-rule="evenodd" d="M18.9215 11.6253L48.4092 28.5181C49.3671 29.062 49.9064 29.7731 49.9894 30.4995C49.9894 29.7047 49.469 28.9061 48.4092 28.2976L18.9215 11.4047C16.8058 10.1839 15.0898 11.2031 15.0898 13.6408V13.8614C15.0898 11.4199 16.8058 10.4197 18.9215 11.6253Z" fill="white"/>
<defs>
<linearGradient id="paint0_linear" x1="32.9672" y1="13.2771" x2="2.92264" y2="21.2158" gradientUnits="userSpaceOnUse">
<stop stop-color="#00A0FF"/>
<stop offset="0.00657" stop-color="#00A1FF"/>
<stop offset="0.2601" stop-color="#00BEFF"/>
<stop offset="0.5122" stop-color="#00D2FF"/>
<stop offset="0.7604" stop-color="#00DFFF"/>
<stop offset="1" stop-color="#00E3FF"/>
</linearGradient>
<linearGradient id="paint1_linear" x1="51.1665" y1="30.5007" x2="14.5737" y2="30.5007" gradientUnits="userSpaceOnUse">
<stop stop-color="#FFE000"/>
<stop offset="0.4087" stop-color="#FFBD00"/>
<stop offset="0.7754" stop-color="#FFA500"/>
<stop offset="1" stop-color="#FF9C00"/>
</linearGradient>
<linearGradient id="paint2_linear" x1="37.545" y1="34.0034" x2="13.1526" y2="74.7156" gradientUnits="userSpaceOnUse">
<stop stop-color="#FF3A44"/>
<stop offset="1" stop-color="#C31162"/>
</linearGradient>
<linearGradient id="paint3_linear" x1="11.032" y1="0.272358" x2="21.9145" y2="18.4552" gradientUnits="userSpaceOnUse">
<stop stop-color="#32A071"/>
<stop offset="0.0685" stop-color="#2DA771"/>
<stop offset="0.4762" stop-color="#15CF74"/>
<stop offset="0.8009" stop-color="#06E775"/>
<stop offset="1" stop-color="#00F076"/>
</linearGradient>
</defs>
</svg>
