<svg width="200" height="80" viewBox="0 0 200 80" fill="none" xmlns="http://www.w3.org/2000/svg">
<path d="M187 37.5L187 42.5" stroke="url(#paint0_linear)" stroke-width="1.5" stroke-linecap="round"/>
<path d="M181.693 37.5L181.693 42.5" stroke="url(#paint1_linear)" stroke-width="1.5" stroke-linecap="round"/>
<path d="M176.387 32.5L176.387 47.5" stroke="url(#paint2_linear)" stroke-width="1.5" stroke-linecap="round"/>
<path d="M171.08 35L171.08 45" stroke="url(#paint3_linear)" stroke-width="1.5" stroke-linecap="round"/>
<path d="M165.773 32.5L165.773 47.5" stroke="url(#paint4_linear)" stroke-width="1.5" stroke-linecap="round"/>
<path d="M160.467 35L160.467 45" stroke="url(#paint5_linear)" stroke-width="1.5" stroke-linecap="round"/>
<path d="M155.16 34L155.16 46" stroke="url(#paint6_linear)" stroke-width="1.5" stroke-linecap="round"/>
<path d="M149.855 29L149.855 51" stroke="url(#paint7_linear)" stroke-width="1.5" stroke-linecap="round"/>
<path d="M144.549 32.5L144.549 47.5" stroke="url(#paint8_linear)" stroke-width="1.5" stroke-linecap="round"/>
<path d="M139.242 35L139.242 45" stroke="url(#paint9_linear)" stroke-width="1.5" stroke-linecap="round"/>
<path d="M133.936 37L133.936 43" stroke="url(#paint10_linear)" stroke-width="1.5" stroke-linecap="round"/>
<path d="M128.629 34L128.629 46" stroke="url(#paint11_linear)" stroke-width="1.5" stroke-linecap="round"/>
<path d="M123.322 30L123.322 50" stroke="url(#paint12_linear)" stroke-width="1.5" stroke-linecap="round"/>
<path d="M118.016 35L118.016 45" stroke="url(#paint13_linear)" stroke-width="1.5" stroke-linecap="round"/>
<path d="M112.709 37L112.709 43" stroke="url(#paint14_linear)" stroke-width="1.5" stroke-linecap="round"/>
<path d="M107.402 37.5L107.402 42.5" stroke="url(#paint15_linear)" stroke-width="1.5" stroke-linecap="round"/>
<path d="M102.096 32.5L102.096 47.5" stroke="url(#paint16_linear)" stroke-width="1.5" stroke-linecap="round"/>
<path d="M96.7891 35L96.7891 45" stroke="url(#paint17_linear)" stroke-width="1.5" stroke-linecap="round"/>
<path d="M91.4824 32.5L91.4824 47.5" stroke="url(#paint18_linear)" stroke-width="1.5" stroke-linecap="round"/>
<path d="M86.1758 27.5L86.1758 52.5" stroke="url(#paint19_linear)" stroke-width="1.5" stroke-linecap="round"/>
<path d="M80.8711 20L80.8711 60" stroke="url(#paint20_linear)" stroke-width="1.5" stroke-linecap="round"/>
<path d="M75.5645 27.5L75.5645 52.5" stroke="url(#paint21_linear)" stroke-width="1.5" stroke-linecap="round"/>
<path d="M70.2578 30L70.2578 50" stroke="url(#paint22_linear)" stroke-width="1.5" stroke-linecap="round"/>
<path d="M64.9512 27.5L64.9512 52.5" stroke="url(#paint23_linear)" stroke-width="1.5" stroke-linecap="round"/>
<path d="M59.6445 32.5L59.6445 47.5" stroke="url(#paint24_linear)" stroke-width="1.5" stroke-linecap="round"/>
<path d="M54.3379 25L54.3379 55" stroke="url(#paint25_linear)" stroke-width="1.5" stroke-linecap="round"/>
<path d="M49.0312 30L49.0312 50" stroke="url(#paint26_linear)" stroke-width="1.5" stroke-linecap="round"/>
<path d="M43.7246 35L43.7246 45" stroke="url(#paint27_linear)" stroke-width="1.5" stroke-linecap="round"/>
<path d="M38.418 37L38.418 43" stroke="url(#paint28_linear)" stroke-width="1.5" stroke-linecap="round"/>
<path d="M33.1113 30L33.1113 50" stroke="url(#paint29_linear)" stroke-width="1.5" stroke-linecap="round"/>
<path d="M27.8047 32.5L27.8047 47.5" stroke="url(#paint30_linear)" stroke-width="1.5" stroke-linecap="round"/>
<path d="M22.498 35L22.498 45" stroke="url(#paint31_linear)" stroke-width="1.5" stroke-linecap="round"/>
<path d="M17.1934 36L17.1934 44" stroke="url(#paint32_linear)" stroke-width="1.5" stroke-linecap="round"/>
<path d="M11.8867 37.5L11.8867 42.5" stroke="url(#paint33_linear)" stroke-width="1.5" stroke-linecap="round"/>
<defs>
<linearGradient id="paint0_linear" x1="187" y1="37.5" x2="184.06" y2="39.2615" gradientUnits="userSpaceOnUse">
<stop stop-color="#DFDFDF"/>
<stop offset="1" stop-color="#979797"/>
</linearGradient>
<linearGradient id="paint1_linear" x1="181.693" y1="37.5" x2="178.753" y2="39.2615" gradientUnits="userSpaceOnUse">
<stop stop-color="#DFDFDF"/>
<stop offset="1" stop-color="#979797"/>
</linearGradient>
<linearGradient id="paint2_linear" x1="176.387" y1="32.5" x2="172.544" y2="33.2673" gradientUnits="userSpaceOnUse">
<stop stop-color="#DFDFDF"/>
<stop offset="1" stop-color="#979797"/>
</linearGradient>
<linearGradient id="paint3_linear" x1="171.08" y1="35" x2="167.414" y2="36.0983" gradientUnits="userSpaceOnUse">
<stop stop-color="#DFDFDF"/>
<stop offset="1" stop-color="#979797"/>
</linearGradient>
<linearGradient id="paint4_linear" x1="165.773" y1="32.5" x2="161.931" y2="33.2673" gradientUnits="userSpaceOnUse">
<stop stop-color="#DFDFDF"/>
<stop offset="1" stop-color="#979797"/>
</linearGradient>
<linearGradient id="paint5_linear" x1="160.467" y1="35" x2="156.8" y2="36.0983" gradientUnits="userSpaceOnUse">
<stop stop-color="#DFDFDF"/>
<stop offset="1" stop-color="#979797"/>
</linearGradient>
<linearGradient id="paint6_linear" x1="155.16" y1="34" x2="151.399" y2="34.9389" gradientUnits="userSpaceOnUse">
<stop stop-color="#DFDFDF"/>
<stop offset="1" stop-color="#979797"/>
</linearGradient>
<linearGradient id="paint7_linear" x1="149.855" y1="29" x2="145.933" y2="29.5341" gradientUnits="userSpaceOnUse">
<stop stop-color="#DFDFDF"/>
<stop offset="1" stop-color="#979797"/>
</linearGradient>
<linearGradient id="paint8_linear" x1="144.549" y1="32.5" x2="140.707" y2="33.2673" gradientUnits="userSpaceOnUse">
<stop stop-color="#DFDFDF"/>
<stop offset="1" stop-color="#979797"/>
</linearGradient>
<linearGradient id="paint9_linear" x1="139.242" y1="35" x2="135.576" y2="36.0983" gradientUnits="userSpaceOnUse">
<stop stop-color="#DFDFDF"/>
<stop offset="1" stop-color="#979797"/>
</linearGradient>
<linearGradient id="paint10_linear" x1="133.936" y1="37" x2="130.737" y2="38.5968" gradientUnits="userSpaceOnUse">
<stop stop-color="#DFDFDF"/>
<stop offset="1" stop-color="#979797"/>
</linearGradient>
<linearGradient id="paint11_linear" x1="128.629" y1="34" x2="124.868" y2="34.9389" gradientUnits="userSpaceOnUse">
<stop stop-color="#DFDFDF"/>
<stop offset="1" stop-color="#979797"/>
</linearGradient>
<linearGradient id="paint12_linear" x1="123.322" y1="30" x2="119.414" y2="30.5853" gradientUnits="userSpaceOnUse">
<stop stop-color="#DFDFDF"/>
<stop offset="1" stop-color="#979797"/>
</linearGradient>
<linearGradient id="paint13_linear" x1="118.016" y1="35" x2="114.349" y2="36.0983" gradientUnits="userSpaceOnUse">
<stop stop-color="#DFDFDF"/>
<stop offset="1" stop-color="#979797"/>
</linearGradient>
<linearGradient id="paint14_linear" x1="112.709" y1="37" x2="109.511" y2="38.5968" gradientUnits="userSpaceOnUse">
<stop stop-color="#DFDFDF"/>
<stop offset="1" stop-color="#979797"/>
</linearGradient>
<linearGradient id="paint15_linear" x1="107.402" y1="37.5" x2="104.462" y2="39.2615" gradientUnits="userSpaceOnUse">
<stop stop-color="#DFDFDF"/>
<stop offset="1" stop-color="#979797"/>
</linearGradient>
<linearGradient id="paint16_linear" x1="102.096" y1="32.5" x2="98.2534" y2="33.2673" gradientUnits="userSpaceOnUse">
<stop stop-color="#DFDFDF"/>
<stop offset="1" stop-color="#979797"/>
</linearGradient>
<linearGradient id="paint17_linear" x1="96.7891" y1="35" x2="93.1225" y2="36.0983" gradientUnits="userSpaceOnUse">
<stop stop-color="#DFDFDF"/>
<stop offset="1" stop-color="#979797"/>
</linearGradient>
<linearGradient id="paint18_linear" x1="91.4824" y1="32.5" x2="87.6401" y2="33.2673" gradientUnits="userSpaceOnUse">
<stop stop-color="#DFDFDF"/>
<stop offset="1" stop-color="#979797"/>
</linearGradient>
<linearGradient id="paint19_linear" x1="86.1758" y1="27.5" x2="82.2368" y2="27.972" gradientUnits="userSpaceOnUse">
<stop stop-color="#DFDFDF"/>
<stop offset="1" stop-color="#979797"/>
</linearGradient>
<linearGradient id="paint20_linear" x1="80.8711" y1="20" x2="76.8978" y2="20.2976" gradientUnits="userSpaceOnUse">
<stop stop-color="#DFDFDF"/>
<stop offset="1" stop-color="#979797"/>
</linearGradient>
<linearGradient id="paint21_linear" x1="75.5645" y1="27.5" x2="71.6254" y2="27.972" gradientUnits="userSpaceOnUse">
<stop stop-color="#DFDFDF"/>
<stop offset="1" stop-color="#979797"/>
</linearGradient>
<linearGradient id="paint22_linear" x1="70.2578" y1="30" x2="66.3499" y2="30.5853" gradientUnits="userSpaceOnUse">
<stop stop-color="#DFDFDF"/>
<stop offset="1" stop-color="#979797"/>
</linearGradient>
<linearGradient id="paint23_linear" x1="64.9512" y1="27.5" x2="61.0122" y2="27.972" gradientUnits="userSpaceOnUse">
<stop stop-color="#DFDFDF"/>
<stop offset="1" stop-color="#979797"/>
</linearGradient>
<linearGradient id="paint24_linear" x1="59.6445" y1="32.5" x2="55.8022" y2="33.2673" gradientUnits="userSpaceOnUse">
<stop stop-color="#DFDFDF"/>
<stop offset="1" stop-color="#979797"/>
</linearGradient>
<linearGradient id="paint25_linear" x1="54.3379" y1="25" x2="50.3818" y2="25.395" gradientUnits="userSpaceOnUse">
<stop stop-color="#DFDFDF"/>
<stop offset="1" stop-color="#979797"/>
</linearGradient>
<linearGradient id="paint26_linear" x1="49.0312" y1="30" x2="45.1234" y2="30.5853" gradientUnits="userSpaceOnUse">
<stop stop-color="#DFDFDF"/>
<stop offset="1" stop-color="#979797"/>
</linearGradient>
<linearGradient id="paint27_linear" x1="43.7246" y1="35" x2="40.0581" y2="36.0983" gradientUnits="userSpaceOnUse">
<stop stop-color="#DFDFDF"/>
<stop offset="1" stop-color="#979797"/>
</linearGradient>
<linearGradient id="paint28_linear" x1="38.418" y1="37" x2="35.2196" y2="38.5968" gradientUnits="userSpaceOnUse">
<stop stop-color="#DFDFDF"/>
<stop offset="1" stop-color="#979797"/>
</linearGradient>
<linearGradient id="paint29_linear" x1="33.1113" y1="30" x2="29.2034" y2="30.5853" gradientUnits="userSpaceOnUse">
<stop stop-color="#DFDFDF"/>
<stop offset="1" stop-color="#979797"/>
</linearGradient>
<linearGradient id="paint30_linear" x1="27.8047" y1="32.5" x2="23.9624" y2="33.2673" gradientUnits="userSpaceOnUse">
<stop stop-color="#DFDFDF"/>
<stop offset="1" stop-color="#979797"/>
</linearGradient>
<linearGradient id="paint31_linear" x1="22.498" y1="35" x2="18.8315" y2="36.0983" gradientUnits="userSpaceOnUse">
<stop stop-color="#DFDFDF"/>
<stop offset="1" stop-color="#979797"/>
</linearGradient>
<linearGradient id="paint32_linear" x1="17.1934" y1="36" x2="13.6891" y2="37.3121" gradientUnits="userSpaceOnUse">
<stop stop-color="#DFDFDF"/>
<stop offset="1" stop-color="#979797"/>
</linearGradient>
<linearGradient id="paint33_linear" x1="11.8867" y1="37.5" x2="8.9465" y2="39.2615" gradientUnits="userSpaceOnUse">
<stop stop-color="#DFDFDF"/>
<stop offset="1" stop-color="#979797"/>
</linearGradient>
</defs>
</svg>
