<svg width="389" height="367" viewBox="0 0 389 367" fill="none" xmlns="http://www.w3.org/2000/svg"><g clip-path="url(#clip0_167_5789)"><rect width="389" height="376" rx="6.73349" fill="#fff"/><rect x="37.8779" y="255.476" width="31.423" height="22.445" rx="11.2225" transform="rotate(-90 37.8779 255.476)" fill="#E4E900"/><path d="M37.9774 285.468c.0718.072.1616.108.2694.108h1.598c.2514 0 .413-.108.5208-.341l.8259-2.227h5.315l.826 2.227c.0898.233.2693.341.5207.341h1.5981c.0898 0 .1796-.036.2514-.108.0718-.072.1257-.161.1257-.269l-.0359-.162-4.3095-11.851c-.1257-.305-.3411-.466-.6464-.466h-1.9752c-.3232 0-.5386.161-.6464.466l-4.3094 11.851-.0359.162c0 .108.0359.197.1077.269zm3.8426-4.578l2.029-5.657 2.0291 5.657H41.82zm9.6484 4.542c0 .18.0898.27.2693.27h7.3081c.1616 0 .2514-.072.2514-.252v-1.454c0-.144-.0898-.234-.2514-.234h-2.3343v-10.971c0-.161-.1077-.251-.2873-.251h-1.4185c-.0359 0-.0359.018-.0359.018s-.0179.018-.0359.018c-.7901.233-1.6699.521-2.6575.88-.1795.072-.2693.179-.2693.323v1.023c0 .18.0718.252.2514.252h2.1188v8.708h-2.6396c-.1795 0-.2693.09-.2693.252v1.418zM32.2564 305.185v1.024h3.8111v-1.024h-3.8111zm3.2994 0c0 2.532.4444 8.269 5.8312 11.528.1885-.242.5926-.673.8215-.848-5.3195-3.151-5.6157-8.269-5.6157-10.68h-1.037zm-.3771 2.64c-.8215 3.811-2.5048 6.532-5.4945 8.094.2693.188.7272.606.9157.821 2.9763-1.751 4.7539-4.592 5.7235-8.7l-1.1447-.215zm9.198-.781v.768h3.7438v-.768h-3.7438zm6.1948 0v.768h3.8111v-.768h-3.8111zm3.3802-2.034v10.37c0 .256-.0808.323-.3501.337-.2694.013-1.1986.027-2.1278-.027.1481.296.3232.767.3771 1.05 1.2254 0 2.02-.013 2.4913-.188.4579-.162.6195-.485.6195-1.172v-10.37h-1.01zm-9.4942 0v.849h3.2994v3.245h-3.2994v.849h4.2555v-4.943h-4.2555zm10.0194 0h-4.498v4.956h4.498v-.848h-3.5283v-3.259h3.5283v-.849zm-10.585 0v11.744h.9965V305.01h-.9965zm17.4128.202v.943h5.1848v-.943h-5.1848zm4.7673 0v.122c-.1616 1.077-.5656 3.218-.9158 4.727l.9293.107c.3232-1.495.7137-3.501.9426-4.902l-.6868-.107-.1481.053h-.1212zm-.1212 3.408l-.2694.915h2.5184v-.915h-2.249zm1.9123 0v.202c-.7137 3.649-2.6934 5.992-5.1983 7.177.2155.149.5387.526.6869.755 2.5587-1.307 4.6595-3.838 5.481-7.932l-.5925-.243-.1886.041h-.1885zm-4.3768-1.94l-.7407.135c.7811 4.713 2.3164 8.498 5.8178 9.952.1481-.256.4309-.633.6599-.821-3.4206-1.253-4.9963-4.916-5.737-9.266zm-4.7269-2.303c-.3501.889-.9696 2.182-1.4814 2.95l.7003.323c.5252-.741 1.1582-1.939 1.6699-2.922l-.8888-.351zm1.5083 1.536c-.7137 1.454-1.9796 3.501-2.9762 4.713l.6195.35c.9966-1.185 2.2894-3.138 3.2051-4.686l-.8484-.377zm-3.6361 1.293c.7273.646 1.5757 1.589 1.9393 2.222l.5387-.768c-.3637-.606-1.2121-1.481-1.9662-2.114l-.5118.66zm3.3129 1.831c.5252.889 1.0504 2.074 1.2255 2.828l.7676-.35c-.1885-.741-.7272-1.899-1.2793-2.761l-.7138.283zm-3.3533 1.374l.0808.915c1.2525-.08 2.8954-.188 4.5384-.309l.0135-.822c-1.7373.094-3.461.175-4.6327.216zm3.5823 1.791c.3366.754.6733 1.75.7945 2.41l.7811-.269c-.1347-.646-.4714-1.643-.8484-2.37l-.7272.229zm-2.8281-.135c-.1616 1.185-.431 2.384-.8754 3.205.2155.095.6195.283.7946.391.4309-.862.7676-2.168.9561-3.434l-.8753-.162zm1.4544-1.279v6.006h.9023v-6.006h-.9023zm3.8112-5.01v2.37c0 2.317-.1751 5.589-2.1413 8.053.229.108.5926.378.7542.526 2.0604-2.586 2.2894-6.06 2.2894-8.579v-2.37h-.9023z" fill="#000"/><rect x="98.8118" y="255.476" width="54.7658" height="20.2005" rx="10.1002" transform="rotate(-90 98.8118 255.476)" fill="#71E67C"/><path d="M97.7892 285.468c.0718.072.1616.108.2693.108h1.5981c.2514 0 .4134-.108.5204-.341l.826-2.227h5.315l.826 2.227c.09.233.27.341.521.341h1.598c.09 0 .18-.036.251-.108.072-.072.126-.161.126-.269l-.036-.162-4.309-11.851c-.126-.305-.341-.466-.647-.466h-1.975c-.323 0-.538.161-.646.466l-4.3096 11.851-.036.162c0 .108.036.197.1078.269zm3.8428-4.578l2.029-5.657 2.029 5.657h-4.058zm17.423 2.926l-5.854-.018c0-.053.036-.143.072-.251.036-.108.072-.197.09-.269 0-.018.018-.036.018-.054 0-.018.018-.036.018-.054l.036-.054c0-.018.018-.036.036-.072.018-.018.036-.036.054-.072 0-.035.018-.071.054-.107.035-.036.089-.108.161-.216.072-.108.18-.233.323-.377.054-.054.108-.126.18-.197.072-.072.233-.198.503-.413.179-.144.323-.252.395-.324.072-.053.125-.089.161-.125 0 0 .036-.018.072-.054.036-.036.054-.054.072-.054l.036-.018.018-.018.054-.054c.107-.072.251-.179.431-.305.089-.072.341-.269.736-.557.395-.287.754-.592 1.077-.915.772-.773 1.239-1.545 1.401-2.335 0-.036 0-.125.036-.251.036-.108.054-.323.054-.611-.072-1.256-.521-2.208-1.365-2.89-.287-.216-.664-.449-1.167-.665-.503-.215-1.185-.323-2.047-.341-1.544 0-2.855.575-3.951 1.742h-.018c-.125.179-.179.323-.179.431 0 .107.054.215.179.305l.629.61c.251.252.485.252.736 0 .826-.79 1.652-1.203 2.478-1.203.718 0 1.329.198 1.85.575.448.395.682.88.682 1.454-.018.611-.198 1.132-.521 1.563-.341.484-1.185 1.185-2.514 2.118-.431.288-.915.665-1.418 1.096-.503.449-.934.933-1.257 1.436-.108.144-.18.269-.234.359-.377.701-.592 1.491-.646 2.353-.036.377.162.574.557.592h7.99c.287 0 .449-.144.449-.431v-.916c0-.269-.162-.413-.467-.413zM101.04 305.616v.957h6.437v-.957h-6.437zm6.06 0v.243c-.135 6.653-.31 9.063-.727 9.548-.148.188-.283.242-.525.229-.31 0-1.024 0-1.818-.067.175.296.296.74.323 1.036.727.041 1.468.068 1.926.014.444-.067.74-.189 1.037-.606.511-.673.659-2.963.808-9.831v-.566H107.1zm-3.744.404c-.08 3.677-.175 7.906-3.313 9.993.27.175.606.512.795.768 3.246-2.317 3.448-6.774 3.542-10.761h-1.024zm-5.1845 4.849v5.898h.9831v-7.084l-.9831 1.186zm-1.9661-4.014v.916h4.1746v-.916h-4.1746zm1.9661-2.478v2.977h.9831v-2.977h-.9831zm.9562 5.791l-.5522.472c.4983.484 1.6835 1.898 2.1005 2.504l.62-.754c-.337-.377-1.7643-1.872-2.1683-2.222zm.9693-3.313v.216c-.7808 2.074-2.5988 4.269-4.2687 5.454.1616.175.4444.633.5521.889 1.7507-1.347 3.7036-3.744 4.6726-6.235l-.579-.377-.188.053h-.189zm.714 2.519c-.269.485-.808 1.225-1.185 1.656l.498.418c.404-.391.889-.997 1.36-1.536l-.673-.538zm13.305-4.162v.943h5.185v-.943h-5.185zm4.768 0v.122c-.162 1.077-.566 3.218-.916 4.727l.929.107c.323-1.495.714-3.501.943-4.902l-.687-.107-.148.053h-.121zm-.121 3.408l-.27.915h2.519v-.915h-2.249zm1.912 0v.202c-.714 3.649-2.694 5.992-5.198 7.177.215.149.538.526.686.755 2.559-1.307 4.66-3.838 5.481-7.932l-.592-.243-.189.041h-.188zm-4.377-1.94l-.741.135c.781 4.713 2.317 8.498 5.818 9.952.148-.256.431-.633.66-.821-3.421-1.253-4.996-4.916-5.737-9.266zm-4.727-2.303c-.35.889-.969 2.182-1.481 2.95l.7.323c.525-.741 1.158-1.939 1.67-2.922l-.889-.351zm1.508 1.536c-.713 1.454-1.979 3.501-2.976 4.713l.62.35c.996-1.185 2.289-3.138 3.205-4.686l-.849-.377zm-3.636 1.293c.728.646 1.576 1.589 1.94 2.222l.538-.768c-.363-.606-1.212-1.481-1.966-2.114l-.512.66zm3.313 1.831c.525.889 1.051 2.074 1.226 2.828l.767-.35c-.188-.741-.727-1.899-1.279-2.761l-.714.283zm-3.353 1.374l.081.915c1.252-.08 2.895-.188 4.538-.309l.014-.822c-1.738.094-3.461.175-4.633.216zm3.582 1.791c.337.754.674 1.75.795 2.41l.781-.269c-.135-.646-.471-1.643-.849-2.37l-.727.229zm-2.828-.135c-.161 1.185-.431 2.384-.875 3.205.215.095.619.283.794.391.431-.862.768-2.168.957-3.434l-.876-.162zm1.455-1.279v6.006h.902v-6.006h-.902zm3.811-5.01v2.37c0 2.317-.175 5.589-2.142 8.053.229.108.593.378.755.526 2.06-2.586 2.289-6.06 2.289-8.579v-2.37h-.902z" fill="#000"/><rect x="151.624" y="255.476" width="75.4151" height="20.2005" rx="10.1002" transform="rotate(-90 151.624 255.476)" fill="#02CCC2"/><path d="M151.75 285.45c.072.09.18.126.305.126h5.369c1.347 0 2.406-.341 3.16-1.059.755-.701 1.132-1.634 1.132-2.784 0-.682-.18-1.274-.521-1.813-.359-.521-.772-.898-1.275-1.149.395-.18.754-.503 1.06-.97.305-.449.466-.987.466-1.634 0-1.095-.359-1.957-1.041-2.604-.7-.628-1.742-.951-3.142-.951h-5.208c-.143 0-.251.054-.323.126-.072.089-.108.197-.108.341v12.048c0 .126.036.234.126.323zm5.189-7.523h-2.783v-3.34h2.783c.611 0 1.096.144 1.419.431.323.287.485.7.485 1.203 0 .521-.18.934-.503 1.239-.323.323-.79.467-1.401.467zm.18 5.656h-2.963v-3.735h2.963c.61 0 1.077.18 1.436.539.36.359.539.808.539 1.346 0 .539-.179.988-.521 1.329-.359.359-.844.521-1.454.521zm6.833 1.849c0 .18.089.27.269.27h7.308c.162 0 .251-.072.251-.252v-1.454c0-.144-.089-.234-.251-.234h-2.334v-10.971c0-.161-.108-.251-.288-.251h-1.418c-.036 0-.036.018-.036.018s-.018.018-.036.018c-.79.233-1.67.521-2.657.88-.18.072-.27.179-.27.323v1.023c0 .18.072.252.252.252h2.119v8.708h-2.64c-.18 0-.269.09-.269.252v1.418zM149.583 306.775v6.41h1.01v-5.414h8.794v5.347h1.05v-6.343h-10.854zm.538 4.578v.983h9.872v-.983h-9.872zm4.337-6.989v12.376h1.05v-12.376h-1.05zm12.47.848v.943h5.185v-.943h-5.185zm4.768 0v.122c-.162 1.077-.566 3.218-.916 4.727l.929.107c.323-1.495.714-3.501.943-4.902l-.687-.107-.148.053h-.121zm-.122 3.408l-.269.915h2.518v-.915h-2.249zm1.913 0v.202c-.714 3.649-2.694 5.992-5.199 7.177.216.149.539.526.687.755 2.559-1.307 4.66-3.838 5.481-7.932l-.592-.243-.189.041h-.188zm-4.377-1.94l-.741.135c.781 4.713 2.317 8.498 5.818 9.952.148-.256.431-.633.66-.821-3.421-1.253-4.996-4.916-5.737-9.266zm-4.727-2.303c-.35.889-.97 2.182-1.481 2.95l.7.323c.525-.741 1.158-1.939 1.67-2.922l-.889-.351zm1.508 1.536c-.713 1.454-1.979 3.501-2.976 4.713l.62.35c.996-1.185 2.289-3.138 3.205-4.686l-.849-.377zm-3.636 1.293c.727.646 1.576 1.589 1.939 2.222l.539-.768c-.364-.606-1.212-1.481-1.966-2.114l-.512.66zm3.313 1.831c.525.889 1.05 2.074 1.226 2.828l.767-.35c-.188-.741-.727-1.899-1.279-2.761l-.714.283zm-3.353 1.374l.081.915c1.252-.08 2.895-.188 4.538-.309l.013-.822c-1.737.094-3.461.175-4.632.216zm3.582 1.791c.337.754.673 1.75.795 2.41l.781-.269c-.135-.646-.472-1.643-.849-2.37l-.727.229zm-2.828-.135c-.162 1.185-.431 2.384-.875 3.205.215.095.619.283.794.391.431-.862.768-2.168.956-3.434l-.875-.162zm1.454-1.279v6.006h.903v-6.006h-.903zm3.812-5.01v2.37c0 2.317-.176 5.589-2.142 8.053.229.108.593.378.754.526 2.061-2.586 2.29-6.06 2.29-8.579v-2.37h-.902z" fill="#000"/><rect x="211.435" y="255.476" width="103.247" height="20.2005" rx="10.1002" transform="rotate(-90 211.435 255.476)" fill="#8BC7EF"/><path d="M211.562 285.45c.072.09.179.126.305.126h5.369c1.347 0 2.406-.341 3.16-1.059.754-.701 1.131-1.634 1.131-2.784 0-.682-.179-1.274-.52-1.813-.359-.521-.772-.898-1.275-1.149.395-.18.754-.503 1.059-.97.306-.449.467-.987.467-1.634 0-1.095-.359-1.957-1.041-2.604-.701-.628-1.742-.951-3.143-.951h-5.207c-.143 0-.251.054-.323.126-.072.089-.108.197-.108.341v12.048c0 .126.036.234.126.323zm5.189-7.523h-2.783v-3.34h2.783c.611 0 1.095.144 1.419.431.323.287.485.7.485 1.203 0 .521-.18.934-.503 1.239-.323.323-.79.467-1.401.467zm.18 5.656h-2.963v-3.735h2.963c.61 0 1.077.18 1.436.539.359.359.539.808.539 1.346 0 .539-.18.988-.521 1.329-.359.359-.844.521-1.454.521zm14.607.233l-5.853-.018c0-.053.036-.143.072-.251.035-.108.071-.197.089-.269 0-.018.018-.036.018-.054 0-.018.018-.036.018-.054l.036-.054c0-.018.018-.036.036-.072.018-.018.036-.036.054-.072 0-.035.018-.071.054-.107.036-.036.09-.108.161-.216.072-.108.18-.233.324-.377.053-.054.107-.126.179-.197.072-.072.234-.198.503-.413.179-.144.323-.252.395-.324.072-.053.126-.089.162-.125 0 0 .035-.018.071-.054.036-.036.054-.054.072-.054l.036-.018.018-.018.054-.054c.108-.072.251-.179.431-.305.09-.072.341-.269.736-.557.395-.287.754-.592 1.077-.915.773-.773 1.239-1.545 1.401-2.335 0-.036 0-.125.036-.251.036-.108.054-.323.054-.611-.072-1.256-.521-2.208-1.365-2.89-.287-.216-.664-.449-1.167-.665-.503-.215-1.185-.323-2.047-.341-1.544 0-2.855.575-3.95 1.742h-.018c-.126.179-.18.323-.18.431 0 .107.054.215.18.305l.628.61c.252.252.485.252.736 0 .826-.79 1.652-1.203 2.478-1.203.719 0 1.329.198 1.85.575.449.395.682.88.682 1.454-.018.611-.197 1.132-.521 1.563-.341.484-1.185 1.185-2.513 2.118-.431.288-.916.665-1.419 1.096-.503.449-.934.933-1.257 1.436-.108.144-.179.269-.233.359-.377.701-.593 1.491-.647 2.353-.036.377.162.574.557.592h7.99c.288 0 .449-.144.449-.431v-.916c0-.269-.161-.413-.467-.413zM202.928 306.775v6.41h1.01v-5.414h8.793v5.347h1.051v-6.343h-10.854zm.538 4.578v.983h9.871v-.983h-9.871zm4.337-6.989v12.376h1.05v-12.376h-1.05zm8.174 1.293v.875h11.703v-.875h-11.703zm5.266-1.293v1.71h1.037v-1.71h-1.037zm-4.673 6.558v5.845h.983v-4.983h9.023v-.862H216.57zm9.588 0v4.606c0 .189-.054.256-.283.256-.229.027-.983.027-1.872 0 .148.269.297.673.337.956 1.118 0 1.845-.013 2.276-.161.431-.176.552-.472.552-1.024v-4.633h-1.01zm-6.895 1.738v3.528h.902v-3.528h-.902zm.485 0v.727h3.744v1.387h-3.744v.727h4.659v-2.841h-4.659zm-.566-4.633h5.266v1.306h-5.266v-1.306zm-.969-.741v2.788h7.258v-2.788h-7.258zm15.527-2.074v.943h5.185v-.943h-5.185zm4.767 0v.122c-.161 1.077-.565 3.218-.915 4.727l.929.107c.323-1.495.714-3.501.942-4.902l-.686-.107-.149.053h-.121zm-.121 3.408l-.269.915h2.518v-.915h-2.249zm1.912 0v.202c-.713 3.649-2.693 5.992-5.198 7.177.216.149.539.526.687.755 2.559-1.307 4.66-3.838 5.481-7.932l-.593-.243-.188.041h-.189zm-4.376-1.94l-.741.135c.781 4.713 2.316 8.498 5.818 9.952.148-.256.431-.633.66-.821-3.421-1.253-4.997-4.916-5.737-9.266zm-4.727-2.303c-.35.889-.97 2.182-1.482 2.95l.701.323c.525-.741 1.158-1.939 1.67-2.922l-.889-.351zm1.508 1.536c-.714 1.454-1.98 3.501-2.976 4.713l.619.35c.997-1.185 2.29-3.138 3.205-4.686l-.848-.377zm-3.636 1.293c.727.646 1.576 1.589 1.939 2.222l.539-.768c-.364-.606-1.212-1.481-1.966-2.114l-.512.66zm3.313 1.831c.525.889 1.05 2.074 1.225 2.828l.768-.35c-.189-.741-.727-1.899-1.279-2.761l-.714.283zm-3.353 1.374l.08.915c1.253-.08 2.896-.188 4.539-.309l.013-.822c-1.737.094-3.461.175-4.632.216zm3.582 1.791c.336.754.673 1.75.794 2.41l.781-.269c-.134-.646-.471-1.643-.848-2.37l-.727.229zm-2.828-.135c-.162 1.185-.431 2.384-.876 3.205.216.095.62.283.795.391.431-.862.768-2.168.956-3.434l-.875-.162zm1.454-1.279v6.006h.902v-6.006h-.902zm3.811-5.01v2.37c0 2.317-.175 5.589-2.141 8.053.229.108.593.378.754.526 2.061-2.586 2.29-6.06 2.29-8.579v-2.37h-.903z" fill="#000"/><path d="M281.347 255.476c-5.578 0-10.1-4.522-10.1-10.1V123.724c0-5.578 4.522-10.1 10.1-10.1 5.578 0 10.1 4.522 10.1 10.1v121.652c0 5.578-4.522 10.1-10.1 10.1z" fill="#3E86F9"/><path d="M272.253 284.463c.898.862 2.191 1.275 3.843 1.275 1.059 0 1.993-.18 2.783-.539.79-.359 1.401-.88 1.832-1.526.43-.647.664-1.365.7-2.173 0-.108-.036-.197-.108-.269-.072-.072-.162-.126-.269-.126h-1.742c-.144 0-.251.036-.323.108-.072.072-.144.197-.18.359-.179.754-.503 1.293-.951 1.598-.449.323-1.024.467-1.742.467-1.724 0-2.604-.97-2.676-2.927-.018-.341-.018-.862-.018-1.544 0-.683 0-1.185.018-1.526.072-1.94.952-2.909 2.676-2.909.718 0 1.311.161 1.76.466.43.324.754.844.933 1.599.036.179.108.287.18.359.072.072.179.089.323.089h1.742c.09 0 .179-.017.251-.089.072-.072.126-.144.126-.252v-.036c-.036-.79-.27-1.526-.7-2.172-.431-.647-1.042-1.149-1.832-1.527-.79-.359-1.724-.556-2.783-.556-1.652 0-2.927.449-3.825 1.311-.916.862-1.4 2.083-1.454 3.627-.018.359-.018.898-.018 1.652 0 .754 0 1.275.018 1.598.054 1.58.538 2.801 1.436 3.663zm11.287.969c0 .18.09.27.269.27h7.308c.162 0 .252-.072.252-.252v-1.454c0-.144-.09-.234-.252-.234h-2.334v-10.971c0-.161-.108-.251-.287-.251h-1.419c-.036 0-.036.018-.036.018s-.018.018-.036.018c-.79.233-1.67.521-2.657.88-.18.072-.269.179-.269.323v1.023c0 .18.071.252.251.252h2.119v8.708h-2.64c-.179 0-.269.09-.269.252v1.418zM268.789 305.657v.875h11.702v-.875h-11.702zm5.265-1.293v1.71h1.037v-1.71h-1.037zm-4.673 6.558v5.845h.983v-4.983h9.023v-.862h-10.006zm9.589 0v4.606c0 .189-.054.256-.283.256-.229.027-.983.027-1.872 0 .148.269.296.673.337.956 1.117 0 1.845-.013 2.275-.161.431-.176.553-.472.553-1.024v-4.633h-1.01zm-6.896 1.738v3.528h.903v-3.528h-.903zm.485 0v.727h3.744v1.387h-3.744v.727h4.66v-2.841h-4.66zm-.565-4.633h5.265v1.306h-5.265v-1.306zm-.97-.741v2.788h7.259v-2.788h-7.259zm15.528-2.074v.943h5.184v-.943h-5.184zm4.767 0v.122c-.162 1.077-.566 3.218-.916 4.727l.929.107c.323-1.495.714-3.501.943-4.902l-.687-.107-.148.053h-.121zm-.121 3.408l-.27.915h2.519v-.915h-2.249zm1.912 0v.202c-.714 3.649-2.693 5.992-5.198 7.177.215.149.538.526.686.755 2.559-1.307 4.66-3.838 5.482-7.932l-.593-.243-.189.041h-.188zm-4.377-1.94l-.741.135c.782 4.713 2.317 8.498 5.818 9.952.148-.256.431-.633.66-.821-3.421-1.253-4.996-4.916-5.737-9.266zm-4.727-2.303c-.35.889-.969 2.182-1.481 2.95l.7.323c.525-.741 1.158-1.939 1.67-2.922l-.889-.351zm1.509 1.536c-.714 1.454-1.98 3.501-2.977 4.713l.62.35c.996-1.185 2.289-3.138 3.205-4.686l-.848-.377zm-3.637 1.293c.728.646 1.576 1.589 1.94 2.222l.538-.768c-.363-.606-1.212-1.481-1.966-2.114l-.512.66zm3.313 1.831c.526.889 1.051 2.074 1.226 2.828l.767-.35c-.188-.741-.727-1.899-1.279-2.761l-.714.283zm-3.353 1.374l.081.915c1.252-.08 2.895-.188 4.538-.309l.014-.822c-1.738.094-3.461.175-4.633.216zm3.582 1.791c.337.754.674 1.75.795 2.41l.781-.269c-.135-.646-.471-1.643-.849-2.37l-.727.229zm-2.828-.135c-.161 1.185-.431 2.384-.875 3.205.215.095.619.283.794.391.431-.862.768-2.168.957-3.434l-.876-.162zm1.455-1.279v6.006h.902v-6.006h-.902zm3.811-5.01v2.37c0 2.317-.175 5.589-2.141 8.053.228.108.592.378.754.526 2.06-2.586 2.289-6.06 2.289-8.579v-2.37h-.902z" fill="#000"/><rect x="331.059" y="255.476" width="189.436" height="20.2005" rx="10.1002" transform="rotate(-90 331.059 255.476)" fill="#511AE8"/><path d="M332.065 284.463c.898.862 2.191 1.275 3.843 1.275 1.059 0 1.993-.18 2.783-.539.79-.359 1.4-.88 1.831-1.526.431-.647.665-1.365.701-2.173 0-.108-.036-.197-.108-.269-.072-.072-.162-.126-.269-.126h-1.742c-.144 0-.252.036-.323.108-.072.072-.144.197-.18.359-.18.754-.503 1.293-.952 1.598-.449.323-1.023.467-1.741.467-1.724 0-2.604-.97-2.676-2.927-.018-.341-.018-.862-.018-1.544 0-.683 0-1.185.018-1.526.072-1.94.952-2.909 2.676-2.909.718 0 1.31.161 1.759.466.431.324.754.844.934 1.599.036.179.108.287.18.359.071.072.179.089.323.089h1.742c.089 0 .179-.017.251-.089.072-.072.126-.144.126-.252v-.036c-.036-.79-.27-1.526-.701-2.172-.431-.647-1.041-1.149-1.831-1.527-.79-.359-1.724-.556-2.783-.556-1.652 0-2.927.449-3.825 1.311-.916.862-1.401 2.083-1.454 3.627-.018.359-.018.898-.018 1.652 0 .754 0 1.275.018 1.598.053 1.58.538 2.801 1.436 3.663zm19.062-.647l-5.854-.018c0-.053.036-.143.072-.251.036-.108.072-.197.09-.269 0-.018.017-.036.017-.054 0-.018.018-.036.018-.054l.036-.054c0-.018.018-.036.036-.072.018-.018.036-.036.054-.072 0-.035.018-.071.054-.107.036-.036.09-.108.162-.216.071-.108.179-.233.323-.377.054-.054.108-.126.179-.197.072-.072.234-.198.503-.413.18-.144.323-.252.395-.324.072-.053.126-.089.162-.125 0 0 .036-.018.072-.054.036-.036.053-.054.071-.054l.036-.018.018-.018.054-.054c.108-.072.252-.179.431-.305.09-.072.341-.269.736-.557.395-.287.754-.592 1.078-.915.772-.773 1.239-1.545 1.4-2.335 0-.036 0-.125.036-.251.036-.108.054-.323.054-.611-.072-1.256-.521-2.208-1.365-2.89-.287-.216-.664-.449-1.167-.665-.503-.215-1.185-.323-2.047-.341-1.544 0-2.855.575-3.95 1.742h-.018c-.126.179-.18.323-.18.431 0 .107.054.215.18.305l.628.61c.252.252.485.252.737 0 .826-.79 1.652-1.203 2.478-1.203.718 0 1.328.198 1.849.575.449.395.682.88.682 1.454-.018.611-.197 1.132-.52 1.563-.342.484-1.185 1.185-2.514 2.118-.431.288-.916.665-1.419 1.096-.503.449-.933.933-1.257 1.436-.107.144-.179.269-.233.359-.377.701-.593 1.491-.647 2.353-.035.377.162.574.557.592h7.991c.287 0 .448-.144.448-.431v-.916c0-.269-.161-.413-.466-.413zM323.709 304.404v12.336h.916v-12.336h-.916zm-1.912 4.485v.956h4.336v-.956h-4.336zm1.858.498c-.364 1.562-1.212 3.609-2.006 4.66.175.283.43.727.538 1.037.849-1.239 1.684-3.609 2.101-5.414l-.633-.283zm.943.714l-.498.39c.377.58 1.319 2.249 1.602 2.95l.673-.781c-.255-.431-1.441-2.169-1.777-2.559zm-2.653-4.687c.35.93.66 2.169.74 2.963l.741-.188c-.094-.795-.404-2.007-.794-2.95l-.687.175zm3.73-.229c-.188.916-.565 2.236-.862 3.031l.62.202c.35-.755.754-2.02 1.091-3.017l-.849-.216zm1.306.283v.768h6.855v-.768h-6.855zm.337 1.603v.741h6.222v-.741h-6.222zm-.714 1.656v.781h7.569v-.781h-7.569zm3.206-4.35v4.781h.969v-4.781h-.969zm-2.357 5.953v6.41h.956v-5.643h4.229v-.767h-5.185zm4.875 0v5.387c0 .148-.041.202-.216.202s-.727 0-1.333-.014c.121.243.243.593.296.835.835 0 1.401 0 1.751-.135.364-.148.458-.404.458-.888v-5.387h-.956zm-4.363 1.764v.727h4.753v-.727h-4.753zm0 1.737v.728h4.753v-.728h-4.753zm10.234-4.148h-2.922v.943h1.966v3.825h.956v-4.768zm0 4.364h-.875c-.714.579-1.549 1.185-2.222 1.602l.498.997c.768-.579 1.495-1.172 2.182-1.751.835 1.064 2.06 1.535 3.825 1.603 1.508.067 4.39.04 5.885-.027.054-.296.202-.768.323-.997-1.616.108-4.727.148-6.208.081-1.59-.054-2.748-.512-3.408-1.508zm-2.693-8.74c.848.633 1.832 1.589 2.249 2.249l.768-.701c-.445-.659-1.455-1.575-2.317-2.181l-.7.633zm5.387 1.319c1.306.499 2.976 1.266 3.824 1.792l.687-.633c-.902-.539-2.599-1.28-3.865-1.724l-.646.565zm-1.28 1.132v6.976h.957v-6.195h6.006v-.781h-6.963zm6.478 0v5.952c0 .175-.04.229-.215.229s-.741.013-1.374-.013c.121.228.242.579.283.835.902 0 1.468 0 1.818-.162.363-.148.458-.377.458-.875v-5.966h-.97zm-6.478-2.828v.808h6.721v-.808h-6.721zm.526 4.794v.754h6.343v-.754h-6.343zm0 1.98v.781h6.343v-.781h-6.343zm2.693-3.623v6.599h.916v-6.599h-.916zm3.165-3.151v.188c-.606.633-1.859 1.414-2.963 1.845.148.148.404.418.539.593 1.225-.512 2.585-1.347 3.488-2.195l-.62-.485-.215.054h-.229zm7.366.282v.943h5.185v-.943h-5.185zm4.768 0v.122c-.162 1.077-.566 3.218-.916 4.727l.929.107c.323-1.495.714-3.501.943-4.902l-.687-.107-.148.053h-.121zm-.122 3.408l-.269.915h2.518v-.915h-2.249zm1.913 0v.202c-.714 3.649-2.694 5.992-5.199 7.177.216.149.539.526.687.755 2.559-1.307 4.66-3.838 5.481-7.932l-.592-.243-.189.041h-.188zm-4.377-1.94l-.741.135c.781 4.713 2.317 8.498 5.818 9.952.148-.256.431-.633.66-.821-3.421-1.253-4.996-4.916-5.737-9.266zm-4.727-2.303c-.35.889-.97 2.182-1.481 2.95l.7.323c.525-.741 1.158-1.939 1.67-2.922l-.889-.351zm1.508 1.536c-.713 1.454-1.979 3.501-2.976 4.713l.62.35c.996-1.185 2.289-3.138 3.205-4.686l-.849-.377zm-3.636 1.293c.727.646 1.576 1.589 1.939 2.222l.539-.768c-.363-.606-1.212-1.481-1.966-2.114l-.512.66zm3.313 1.831c.525.889 1.051 2.074 1.226 2.828l.767-.35c-.188-.741-.727-1.899-1.279-2.761l-.714.283zm-3.353 1.374l.081.915c1.252-.08 2.895-.188 4.538-.309l.013-.822c-1.737.094-3.461.175-4.632.216zm3.582 1.791c.337.754.673 1.75.795 2.41l.781-.269c-.135-.646-.472-1.643-.849-2.37l-.727.229zm-2.828-.135c-.162 1.185-.431 2.384-.875 3.205.215.095.619.283.794.391.431-.862.768-2.168.956-3.434l-.875-.162zm1.454-1.279v6.006h.903v-6.006h-.903zm3.812-5.01v2.37c0 2.317-.176 5.589-2.142 8.053.229.108.593.378.754.526 2.061-2.586 2.29-6.06 2.29-8.579v-2.37h-.902z" fill="#000"/><path d="M263 81.5649c45.479 3.032 63.065-32.7451 66.703-47.2985" stroke="url(#paint0_linear_167_5789)" stroke-width="9.04367" stroke-linecap="round"/><path d="M338.914 43.5343c.084.5645-.465 1.0141-1.002.8201l-19.715-7.1292c-.55-.1989-.674-.9213-.221-1.2919l16.618-13.6055c.453-.3706 1.137-.1067 1.223.4718l3.097 20.7347zM339.827 17.4164c-.342 1.1318-1.468 1.7487-2.516 1.3786-.524-.185-.929-.5813-1.16-1.0734-.231-.4921-.288-1.079-.117-1.6447l1.755-5.7944c.342-1.13189 1.468-1.74831 2.516-1.37863s1.619 1.58603 1.277 2.71803l-1.755 5.7945zM329.596 17.0101c.499 1.0615.106 2.3588-.877 2.8972-.983.5384-2.184.1143-2.683-.9473l-2.708-5.7668c-.498-1.0616-.105-2.3588.878-2.8972.982-.53842 2.183-.1143 2.682.9473l2.708 5.7668zM351.656 23.1973l-5.339 2.9248c-.983.5384-2.184.1143-2.682-.9473-.499-1.0616-.106-2.3588.877-2.8972l5.339-2.9249c.983-.5384 2.184-.1142 2.682.9473.499 1.0616.106 2.3588-.877 2.8973z" fill="#71E67C"/></g><defs><linearGradient id="paint0_linear_167_5789" x1="331.522" y1="34.2664" x2="261.181" y2="83.3841" gradientUnits="userSpaceOnUse"><stop offset=".002549" stop-color="#71E67C"/><stop offset="1" stop-color="#E4E900"/></linearGradient><clipPath id="clip0_167_5789"><rect width="389" height="376" rx="6.73349" fill="#fff"/></clipPath></defs></svg>