<svg width="192" height="59" viewBox="0 0 192 59" fill="none" xmlns="http://www.w3.org/2000/svg"><rect y=".090912" width="192" height="58" rx="27.9273" fill="#fff"/><g clip-path="url(#clip0_40_5137)"><path d="M34.742 29.3109L24.2237 39.4393c-.4925-.3366-.785-.8965-.7798-1.4931V20.6756c-.0052-.5966.2873-1.1565.7798-1.4931L34.742 29.3109z" fill="#2196F3"/><path d="M38.4229 25.7731l-3.6805 3.5378-10.5183-10.1284c.0397-.0307.0809-.0593.1236-.0856.5559-.3369 1.2503-.3478 1.8165-.0285l12.2587 6.7047z" fill="#4CAF50"/><path d="M42.8832 29.3109c.0069.6735-.3591 1.2955-.951 1.6168l-3.5093 1.921-3.6805-3.5378 3.6805-3.5378 3.5093 1.9211c.5919.3212.9579.9433.951 1.6167z" fill="#FFC107"/><path d="M38.4229 32.8487l-12.2587 6.7047c-.5674.3144-1.2592.3035-1.8165-.0285-.0427-.0263-.0839-.0549-.1236-.0856l10.5184-10.1284 3.6804 3.5378z" fill="#F44336"/></g><path d="M56.3886 14.1823v1.2672h9.4045v-1.2672h-9.4045zm3.8016 1.1415v7.9069h1.351v-7.9069h-1.351zm.7121 2.5344c1.1835.6388 2.7753 1.6233 3.5189 2.2831l.9321-1.152c-.8064-.6494-2.4507-1.5605-3.5922-2.126l-.8588.9949zm14.7945-3.7911c.4608.4503 1.0263 1.0891 1.2672 1.508l.974-.6702c-.2723-.4189-.8588-1.0159-1.3301-1.4452l-.9111.6074zm-7.1529 1.5814v1.0263h9.5407v-1.0263h-9.5407zm.4818-1.5186v.953h4.5661v-.953h-4.5661zm-.1885 3.0057v.8797h4.9431v-.8797h-4.9431zm-.1466 4.2833v.9112h5.0792v-.9112h-5.0792zm2.0317-8.0011v3.1837h1.1939v-3.1837h-1.1939zm-.8169 6.5873h2.8067v.398h-2.8067v-.398zm0-.974h2.8067v.3875h-2.8067v-.3875zm-.8797-.6178v2.5972h4.608v-2.5972h-4.608zm1.8222.3874v1.9899h-.0942v2.4715h1.0996v-2.4715h-.0942v-1.9899h-.9112zm-.1047-2.1992v2.0422h1.1311v-2.0422h-1.1311zm3.3408-3.1733c.0105 5.006.4922 9.8235 2.681 9.8235.9216 0 1.3091-.4608 1.4872-2.2831-.3142-.1152-.7331-.3875-.9949-.6598-.0629 1.2149-.1571 1.7175-.3875 1.7175-.9845 0-1.6338-4.1157-1.5186-8.5981H74.084zm2.5658 3.6969c-.7016 2.325-2.0107 4.1472-3.833 5.1945.3037.2513.6703.6493.8483.953 1.9375-1.2881 3.2884-3.2465 4.0948-5.8019l-1.1101-.3456zm4.4475-.4922v.9425H84.26v-.9425h-3.1627zm.0314-2.8905v.953h3.0999v-.953h-3.0999zm-.0314 4.3148v.953H84.26v-.953h-3.1627zm-.5027-2.901v.9949h4.011v-.9949h-4.011zm1.0472 4.3567v.9949h1.5605v1.1939h-1.5605v.9949h2.6287v-3.1837h-2.6287zm-.5655 0v3.6026h1.0578v-3.6026h-1.0578zm3.7807-5.5296v.9006h5.3411v-.9006H84.857zm.2618 1.2777v.8483h4.9117v-.8483h-4.9117zm-.5132 1.2567v.9006h5.7914v-.9006h-5.7914zm2.2831-3.0999v3.8644h1.1939v-3.8644h-1.1939zm-1.5709 4.3985v5.4249h1.1624v-4.5347h2.8591v-.8902h-4.0215zm3.3303 0v4.2519c0 .1152-.0314.1571-.1676.1571-.1361 0-.576.0105-.9635-.0104.1362.2722.2933.7016.3247 1.0053.6807 0 1.1729-.0104 1.529-.1675.3456-.1676.4503-.4399.4503-.974v-4.2624h-1.1729zm-2.8172 1.3615v.8168h3.4246v-.8168h-3.4246zm0 1.3091v.8168h3.4246v-.8168h-3.4246zm7.1494-5.5192v1.1416h9.5297v-1.1416h-9.5297zm1.2358 3.5712v.9216h2.7229v-.9216h-2.7229zm0 1.6024v.932h2.7229v-.932h-2.7229zm4.3881-3.2047v4.2938h1.1624v-4.2938h-1.1624zm-2.1051-.1047v5.163c0 .1257-.0418.1676-.178.1676-.1257.0105-.555.0105-.9425-.0105.1571.2933.3351.7541.3979 1.0682.6493 0 1.1311-.0104 1.4767-.1989.3561-.1781.4608-.4713.4608-1.0054v-5.184h-1.2149zm4.2099-.1781v5.205c0 .1466-.052.1885-.22.1885-.178.0105-.7224.0105-1.2565-.021.1781.3247.377.8588.4399 1.1939.7746.0105 1.3406-.0314 1.7386-.2199.419-.1885.534-.5132.534-1.1206v-5.2259h-1.236zm-6.2835-2.8276c.3666.4189.7541 1.0159.9007 1.3929l1.2672-.4504c-.178-.3979-.5969-.953-.974-1.3614l-1.1939.4189zm5.3726-.4399c-.2304.5656-.6598 1.3301-1.0159 1.8223l1.1311.3875c.3667-.4608.8277-1.1311 1.2567-1.8013l-1.3719-.4085zm-6.2418 3.4456v6.3569h1.1834v-5.3097h2.1155v-1.0472h-3.2989zm16.3337-2.5973c.754.398 1.728 1.0473 2.168 1.4872l.932-.9007c-.502-.4503-1.497-1.0368-2.241-1.4033l-.859.8168zm-1.183 1.2882v1.1939h5.781v-1.1939h-5.781zm.22 3.058v1.173h5.383v-1.173h-5.383zm-.639 3.1628v1.2148h6.587v-1.2148h-6.587zm2.65-5.7914v6.6501h1.34v-6.6501h-1.34zm-3.383-.2933c-.629 1.0368-1.686 2.0946-2.65 2.7544.199.2722.545.9216.66 1.2043 1.1-.8587 2.335-2.2202 3.11-3.4979l-1.12-.4608zm-.325-2.2307c-.45.7017-1.393 1.5709-2.22 2.0841.188.2618.492.775.618 1.0578 1.005-.6389 2.084-1.6862 2.796-2.6601l-1.194-.4818zm-.743 4.6604v5.1631h1.225v-6.2942l-.063-.0209-1.162 1.152zM57.7535 40.3875c.7122.6703 1.7176 1.0054 3.0022 1.0054.8378.014 1.5779-.1396 2.2202-.4608.6284-.3072 1.1171-.754 1.4662-1.3405.3352-.5725.5167-1.2567.5167-2.0527v-1.508c0-.0838-.0419-.1676-.0978-.2374-.0698-.0559-.1536-.0978-.2513-.0978h-3.3513c-.0977 0-.1815.0419-.2374.0978-.0698.0698-.0977.1536-.0977.2374v.7819c0 .1117.0279.1955.0977.2514.0559.0698.1397.0977.2374.0977h1.7036v.4329c0 .7261-.2095 1.2567-.6005 1.6198-.4049.363-.9355.5445-1.5918.5445-.6563 0-1.173-.1815-1.536-.5445-.377-.3631-.5725-.9356-.5865-1.7036-.0139-.2793-.0139-.6842-.0139-1.2428 0-.5585 0-.9774.0139-1.2567.014-.7401.2095-1.2846.5725-1.6477.3631-.3491.8797-.5306 1.536-.5306.5586 0 .9914.1257 1.3266.377.3211.2513.5446.5446.6842.8797.0279.0838.0698.1536.1257.1955.0419.0419.1117.0559.2094.0559h1.4662c.0838 0 .1676-.028.2234-.0838.0559-.0559.0838-.1397.0838-.2234-.0279-.419-.1955-.8518-.5027-1.2987-.3212-.4328-.7959-.7959-1.4103-1.1031-.6144-.2932-1.3545-.4468-2.2063-.4468-1.2707 0-2.2621.3351-2.9882 1.0054-.7261.6702-1.1171 1.5778-1.145 2.7508-.014.2793-.014.7261-.014 1.3265 0 .6144 0 1.0473.014 1.3126.0419 1.2009.4189 2.1365 1.131 2.8067zm11.2292.2514c.6004.5585 1.4522.8378 2.5414.8378s1.927-.2793 2.5274-.8378c.6004-.5586.9216-1.3266.9635-2.318.014-.0978.0279-.3072.0279-.6144s-.0139-.5027-.0279-.6144c-.0419-.9775-.3631-1.7455-.9775-2.304-.6144-.5586-1.4522-.8518-2.5134-.8518-1.0752 0-1.913.2932-2.5274.8518-.6144.5585-.9356 1.3265-.9635 2.304l-.0279.6144.0279.6144c.0279.9914.3491 1.7594.9495 2.318zm2.5414-.5726c-.5027 0-.8797-.1536-1.145-.4608-.2793-.3072-.4189-.754-.4189-1.3544l-.028-.5446.028-.5446c0-.5865.1396-1.0473.4189-1.3545.2653-.3072.6423-.4747 1.145-.4747.4887 0 .8657.1675 1.145.4747.2653.3072.405.768.4189 1.3545.014.0978.0279.2793.0279.5446 0 .2793-.0139.4608-.0279.5446-.0139.6004-.1536 1.0472-.4189 1.3544-.2653.3072-.6423.4608-1.145.4608zm7.4813.5726c.6005.5585 1.4523.8378 2.5414.8378 1.0892 0 1.927-.2793 2.5274-.8378.6005-.5586.9216-1.3266.9635-2.318.014-.0978.028-.3072.028-.6144s-.014-.5027-.028-.6144c-.0419-.9775-.363-1.7455-.9774-2.304-.6144-.5586-1.4522-.8518-2.5135-.8518-1.0752 0-1.913.2932-2.5274.8518-.6144.5585-.9356 1.3265-.9635 2.304l-.0279.6144.0279.6144c.0279.9914.3491 1.7594.9495 2.318zm2.5414-.5726c-.5027 0-.8797-.1536-1.145-.4608-.2793-.3072-.4189-.754-.4189-1.3544l-.0279-.5446.0279-.5446c0-.5865.1396-1.0473.4189-1.3545.2653-.3072.6423-.4747 1.145-.4747.4887 0 .8658.1675 1.145.4747.2653.3072.405.768.4189 1.3545.014.0978.028.2793.028.5446 0 .2793-.014.4608-.028.5446-.0139.6004-.1536 1.0472-.4189 1.3544-.2653.3072-.6423.4608-1.145.4608zm8.0678 4.1752c.5027.2792 1.173.4189 2.0108.4189 1.159 0 2.0247-.2793 2.5972-.8658.2793-.2653.4888-.6423.6424-1.145.1396-.5027.2234-1.0193.2234-1.5639l-.014-6.7584c0-.1117-.0419-.1955-.0977-.2653-.0698-.0559-.1536-.0978-.2374-.0978h-1.145c-.0978 0-.1816.0419-.2514.0978-.0698.0698-.0977.1536-.0977.2653v.5306c-.2374-.3072-.5446-.5585-.9216-.754-.377-.1816-.8099-.2793-1.2847-.2793-.9774 0-1.7035.3072-2.1923.9076-.4887.6144-.754 1.4104-.7959 2.4157v.7541c.0419 1.0333.3072 1.8432.7959 2.4297.4748.5864 1.2149.8797 2.1923.8797.9077 0 1.6198-.2933 2.1225-.9077v.9635c0 .3351-.0419.6563-.0977.9635-.0699.3072-.1676.5306-.2933.6423-.2653.2514-.6702.3631-1.2288.3631-.4189 0-.7401-.0838-.9495-.2514-.2095-.1675-.3631-.377-.4468-.6283-.0559-.1117-.0978-.1815-.1536-.2234-.0559-.0419-.1257-.0699-.2095-.0699h-1.2567c-.0978 0-.1816.0419-.2374.0978-.0698.0558-.0978.1396-.0978.2234 0 .2514.0978.5586.3212.9216.2095.3631.5725.6703 1.1031.9356zm3.1279-5.0269c-.2793.3351-.6703.5027-1.173.5027-1.0891 0-1.6197-.7262-1.6197-2.1923l.0279-.3352c.0558-1.2288.5865-1.8571 1.5918-1.8571.5027 0 .8937.1815 1.159.5166.2514.3352.405.7541.4329 1.2288.014.0838.0279.2374.0279.4608s-.0139.377-.0279.4469c-.0279.4887-.1676.8936-.4189 1.2288zm6.0771 1.9968c.0559.0698.1397.0977.2374.0977h1.173c.098 0 .181-.0279.237-.0977.056-.0559.098-.1397.098-.2374v-9.8863c0-.0977-.042-.1815-.098-.2374-.056-.0558-.139-.0977-.237-.0977h-1.173c-.0977 0-.1815.0419-.2374.0977-.0698.0559-.0977.1397-.0977.2374v9.8863c0 .0977.0279.1815.0977.2374zm5.9994-.6563c.614.6004 1.438.8936 2.499.8936.643 0 1.201-.1117 1.704-.3351.502-.2234.88-.4747 1.145-.7819.251-.3072.391-.5726.391-.796 0-.0838-.028-.1396-.084-.1955-.07-.0419-.14-.0698-.223-.0698h-1.229c-.112 0-.182.014-.224.0419-.055.0279-.111.0838-.195.1815-.335.4329-.782.6424-1.313.6424-.474 0-.838-.1676-1.103-.5027-.265-.3352-.405-.768-.405-1.2986v-.1118h4.636c.084 0 .168-.0279.238-.0977.055-.0559.097-.1396.097-.2374v-.2932c0-1.1171-.307-2.0108-.907-2.681-.601-.6703-1.453-1.0054-2.556-1.0054-1.089 0-1.927.3351-2.527 1.0054-.615.6702-.908 1.5918-.908 2.7508v.3491c.028 1.1031.349 1.9549.964 2.5414zm4.007-3.5189h-3.044v-.0279c-.014-.5446.112-.9774.391-1.3126.279-.3351.643-.5027 1.117-.5027.475 0 .838.1676 1.117.5027.28.3352.419.768.419 1.3126v.0279zm10.148 6.9679c.056.0698.14.0977.252.0977h1.2c.112 0 .196-.0279.252-.0977.056-.0559.084-.1396.084-.2514v-3.2814c.488.6842 1.2 1.0193 2.15 1.0193.935 0 1.662-.3072 2.164-.9216.503-.6144.768-1.4382.796-2.4576.014-.1117.028-.2792.028-.5166 0-.2374-.014-.4189-.028-.5306-.042-1.0333-.307-1.8432-.81-2.4576-.502-.6144-1.215-.9216-2.15-.9216-1.005 0-1.746.363-2.234 1.0752v-.5725c0-.0978-.042-.1816-.098-.2514-.07-.0558-.154-.0977-.237-.0977h-1.117c-.112 0-.196.0419-.252.0977-.056.0559-.084.1396-.084.2374v9.579c0 .1118.028.1955.084.2514zm4.999-5.9764c-.084 1.2706-.614 1.899-1.592 1.899-.53 0-.921-.1676-1.187-.5027-.279-.3351-.419-.7401-.432-1.2288v-1.1171c.013-.5027.153-.9355.418-1.2986.266-.3491.671-.5306 1.201-.5306.978 0 1.508.6423 1.592 1.899v.8798zm5.324 3.1837c.056.0698.14.0977.237.0977h1.173c.098 0 .182-.0279.238-.0977.055-.0559.097-.1397.097-.2374v-9.8863c0-.0977-.042-.1815-.097-.2374-.056-.0558-.14-.0977-.238-.0977h-1.173c-.097 0-.181.0419-.237.0977-.07.0559-.098.1397-.098.2374v9.8863c0 .0977.028.1815.098.2374zm11.459-7.2472h-1.271c-.084 0-.167.0419-.223.0978-.056.0558-.084.1257-.084.2094v.5167c-.559-.6004-1.285-.9076-2.206-.9076-.754 0-1.355.1675-1.816.5166-.139.1117-.293.2653-.446.4608l-.182.2793c-.126.1815-.265.5027-.419.9635-.153.4608-.223.9774-.223 1.5499l.014.3631c.028.5027.111.9774.265 1.3964.14.4189.251.6981.335.8098.545.8099 1.382 1.2288 2.5 1.2288.921.014 1.647-.2792 2.178-.8797v.4329c0 .0838.028.1676.084.2234.056.0698.139.0978.223.0978h1.271c.084 0 .153-.028.209-.0978.056-.0558.098-.1396.098-.2234v-6.7305c0-.0837-.042-.1536-.098-.2094-.056-.0559-.125-.0978-.209-.0978zm-1.578 3.4211v.4469c-.028.6423-.14 1.131-.363 1.4661-.307.4469-.768.6563-1.369.6144-.446-.0279-.782-.1815-1.033-.4608-.293-.3211-.447-.8797-.461-1.6616-.014-.8378.098-1.4522.349-1.8153.349-.5027.88-.6982 1.606-.5725.824.1396 1.243.8099 1.271 1.9828zm6.162 6.6328c.055.0558.125.0837.209.0837h1.117c.182 0 .307-.0837.391-.2653l4.105-9.4813c.028-.0838.056-.1536.056-.2234s-.028-.1396-.084-.1955c-.055-.0558-.139-.0838-.223-.0838h-1.117c-.168 0-.307.0978-.391.2653l-1.899 4.5522-1.843-4.5522c-.084-.1675-.196-.2653-.363-.2653h-1.173c-.084 0-.14.0419-.196.0978-.056.0558-.097.1256-.111.2094 0 .0559.014.1117.055.1955l2.681 6.3255-1.242 2.9184c-.042.0838-.056.1676-.056.2235 0 .0837.028.1396.084.1955z" fill="#646464"/><defs><clipPath id="clip0_40_5137"><path fill="#fff" transform="translate(22.6909 18.8364)" d="M0 0h20.9455v20.9455H0z"/></clipPath></defs></svg>