<svg width="192" height="58" viewBox="0 0 192 58" fill="none" xmlns="http://www.w3.org/2000/svg"><rect width="192" height="58" rx="27.9273" fill="#fff"/><g clip-path="url(#clip0_40_5125)" fill="#646464"><path d="M35.1263 17c-1.3027.0901-2.8254.924-3.7127 2.0099-.8095.9851-1.4754 2.4482-1.2157 3.8701 1.4234.0443 2.8941-.8095 3.7463-1.9137.7973-1.0278 1.4005-2.4818 1.1821-3.9663z"/><path d="M40.275 25.1984c-1.2508-1.5685-3.0087-2.4788-4.6688-2.4788-2.1916 0-3.1187 1.0493-4.6414 1.0493-1.57 0-2.7628-1.0462-4.6581-1.0462-1.8618 0-3.8441 1.1378-5.1011 3.0835-1.767 2.74-1.4646 7.8914 1.399 12.2792 1.0248 1.5701 2.3932 3.3356 4.1832 3.3509 1.5929.0152 2.0419-1.0218 4.1999-1.0325 2.1581-.0122 2.5674 1.0462 4.1573 1.0294 1.7914-.0137 3.2347-1.9702 4.2595-3.5402.7346-1.1256 1.008-1.6922 1.5777-2.9629-4.1435-1.5776-4.8079-7.4698-.7072-9.7317z"/></g><path d="M57.2616 14.0914v1.2672h9.4046v-1.2672h-9.4046zm3.8016 1.1415v7.9069h1.351v-7.9069h-1.351zm.7122 2.5344c1.1834.6388 2.7753 1.6233 3.5188 2.283l.9321-1.152c-.8064-.6493-2.4506-1.5604-3.5921-2.1259l-.8588.9949zm14.7945-3.7911c.4608.4503 1.0263 1.0891 1.2672 1.508l.9739-.6702c-.2723-.4189-.8587-1.0159-1.33-1.4453l-.9111.6075zm-7.1529 1.5813v1.0264h9.5406v-1.0264H69.417zm.4817-1.5185v.953h4.5661v-.953h-4.5661zm-.1885 3.0057v.8797h4.9432v-.8797h-4.9432zm-.1466 4.2833v.9111h5.0793v-.9111h-5.0793zm2.0317-8.0011v3.1837h1.1939v-3.1837h-1.1939zm-.8169 6.5873h2.8067v.398h-2.8067v-.398zm0-.974h2.8067v.3875h-2.8067v-.3875zm-.8797-.6179v2.5973h4.608v-2.5973h-4.608zm1.8223.3875v1.9899h-.0943v2.4715h1.0997v-2.4715h-.0943v-1.9899h-.9111zm-.1047-2.1992v2.0421h1.131v-2.0421h-1.131zm3.3408-3.1733c.0104 5.006.4922 9.8234 2.681 9.8234.9216 0 1.3091-.4608 1.4871-2.283-.3142-.1152-.7331-.3875-.9949-.6598-.0628 1.2148-.1571 1.7175-.3875 1.7175-.9844 0-1.6337-4.1157-1.5185-8.5981h-1.2672zm2.5658 3.6969c-.7017 2.3249-2.0108 4.1472-3.833 5.1945.3037.2513.6702.6493.8483.953 1.9374-1.2882 3.2884-3.2466 4.0948-5.8019l-1.1101-.3456zm4.4474-.4922v.9425h3.1628v-.9425h-3.1628zm.0314-2.8905v.953h3.0999v-.953h-3.0999zm-.0314 4.3148v.953h3.1628v-.953h-3.1628zm-.5027-2.901v.9949h4.0111v-.9949h-4.0111zm1.0473 4.3567v.9949h1.5604v1.1939h-1.5604v.9949h2.6286V19.422h-2.6286zm-.5655 0v3.6026h1.0577V19.422h-1.0577zm3.7806-5.5296v.9006h5.3411v-.9006H85.73zm.2618 1.2777v.8482h4.9117v-.8482h-4.9117zm-.5131 1.2567v.9006h5.7914v-.9006h-5.7914zm2.283-3.0999v3.8644h1.1939v-3.8644h-1.1939zm-1.5709 4.3985v5.4249h1.1625v-4.5347h2.859v-.8902h-4.0215zm3.3303 0v4.2519c0 .1152-.0314.1571-.1675.1571-.1362 0-.576.0105-.9635-.0105.1361.2723.2932.7017.3246 1.0054.6808 0 1.173-.0104 1.5291-.1675.3456-.1676.4503-.4399.4503-.974v-4.2624h-1.173zm-2.8171 1.3615v.8168h3.4246v-.8168H86.704zm0 1.309v.8169h3.4246v-.8169H86.704zm7.1494-5.5191v1.1415h9.5306v-1.1415h-9.5306zm1.2357 3.5712v.9216h2.7229v-.9216h-2.7229zm0 1.6023v.9321h2.7229v-.9321h-2.7229zm4.3881-3.2046v4.2938h1.1628v-4.2938h-1.1628zm-2.105-.1047v5.163c0 .1257-.0419.1676-.178.1676-.1257.0105-.5551.0105-.9426-.0105.1571.2932.3351.754.398 1.0682.6493 0 1.131-.0104 1.4766-.199.3561-.178.4608-.4712.4608-1.0053v-5.184h-1.2148zm4.2098-.1781v5.205c0 .1466-.052.1885-.22.1885-.178.0105-.722.0105-1.256-.021.178.3247.377.8588.439 1.1939.775.0105 1.341-.0314 1.739-.2199.419-.1885.534-.5132.534-1.1206v-5.2259h-1.236zm-6.2834-2.8276c.3665.4189.754 1.0158.9006 1.3929l1.2672-.4504c-.178-.3979-.5969-.953-.9739-1.3614l-1.1939.4189zm5.3724-.4399c-.23.5656-.66 1.3301-1.0158 1.8223l1.1308.3875c.367-.4608.828-1.1311 1.257-1.8013l-1.372-.4085zm-6.2416 3.4456v6.3569h1.1834v-5.3097h2.1155V16.741h-3.2989zm16.3336-2.5973c.754.398 1.728 1.0473 2.168 1.4872l.932-.9007c-.502-.4503-1.497-1.0368-2.241-1.4033l-.859.8168zm-1.183 1.2882v1.1939h5.781v-1.1939h-5.781zm.22 3.058v1.173h5.383v-1.173H109.8zm-.639 3.1628v1.2148h6.587v-1.2148h-6.587zm2.65-5.7914v6.6501h1.34v-6.6501h-1.34zm-3.383-.2933c-.628 1.0368-1.686 2.0946-2.65 2.7543.199.2723.545.9216.66 1.2044 1.1-.8588 2.336-2.2202 3.11-3.4979l-1.12-.4608zm-.325-2.2307c-.45.7017-1.393 1.5709-2.22 2.0841.189.2618.492.775.618 1.0577 1.005-.6388 2.084-1.6861 2.796-2.66l-1.194-.4818zm-.743 4.6604v5.163h1.225v-6.2941l-.063-.0209-1.162 1.152zM57.0208 41.1344c.0558.0559.1256.0838.2094.0838h1.2428c.1955 0 .3212-.0838.4049-.2653l.6424-1.7315h4.1332l.6423 1.7315c.0698.1815.2095.2653.405.2653h1.2427c.0699 0 .1397-.0279.1955-.0838.0559-.0558.0978-.1257.0978-.2094l-.028-.1257-3.3512-9.216c-.0978-.2374-.2653-.3631-.5027-.3631h-1.536c-.2514 0-.4189.1257-.5027.3631l-3.3513 9.216-.0279.1257c0 .0837.0279.1536.0838.2094zm2.9882-3.5607l1.5779-4.3986 1.5779 4.3986H60.009zm9.1928 6.3395c.0558.0698.1396.0977.2513.0977h1.2009c.1117 0 .1955-.0279.2513-.0977.0559-.0559.0838-.1397.0838-.2514v-3.2814c.4887.6842 1.2009 1.0193 2.1504 1.0193.9356 0 1.6617-.3072 2.1644-.9216.5027-.6144.768-1.4382.7959-2.4576.014-.1117.0279-.2792.0279-.5166 0-.2374-.0139-.4189-.0279-.5306-.0419-1.0334-.3072-1.8432-.8099-2.4576-.5027-.6144-1.2148-.9216-2.1504-.9216-1.0054 0-1.7455.363-2.2342 1.0752v-.5726c0-.0977-.0419-.1815-.0977-.2513-.0698-.0559-.1536-.0977-.2374-.0977h-1.1171c-.1117 0-.1955.0418-.2513.0977-.0559.0559-.0838.1396-.0838.2374v9.579c0 .1117.0279.1955.0838.2514zm4.9989-5.9765c-.0837 1.2707-.6144 1.8991-1.5918 1.8991-.5306 0-.9216-.1676-1.1869-.5027-.2793-.3351-.4189-.7401-.4329-1.2288v-1.1171c.014-.5027.1536-.9355.4189-1.2986.2653-.3491.6703-.5306 1.2009-.5306.9774 0 1.5081.6423 1.5918 1.899v.8797zm5.3238 5.9765c.0558.0698.1396.0977.2513.0977h1.2009c.1117 0 .1955-.0279.2513-.0977.0559-.0559.0838-.1397.0838-.2514v-3.2814c.4888.6842 1.2009 1.0193 2.1504 1.0193.9356 0 1.6617-.3072 2.1644-.9216.5027-.6144.768-1.4382.7959-2.4576.014-.1117.0279-.2792.0279-.5166 0-.2374-.0139-.4189-.0279-.5306-.0419-1.0334-.3072-1.8432-.8099-2.4576-.5027-.6144-1.2148-.9216-2.1504-.9216-1.0054 0-1.7454.363-2.2342 1.0752v-.5726c0-.0977-.0418-.1815-.0977-.2513-.0698-.0559-.1536-.0977-.2374-.0977h-1.1171c-.1117 0-.1955.0418-.2513.0977-.0559.0559-.0838.1396-.0838.2374v9.579c0 .1117.0279.1955.0838.2514zm4.999-5.9765c-.0838 1.2707-.6144 1.8991-1.5919 1.8991-.5306 0-.9216-.1676-1.1869-.5027-.2793-.3351-.4189-.7401-.4329-1.2288v-1.1171c.014-.5027.1536-.9355.4189-1.2986.2653-.3491.6703-.5306 1.2009-.5306.9775 0 1.5081.6423 1.5919 1.899v.8797zm11.5041 3.0302c.6005.2513 1.3266.377 2.1644.377.782 0 1.4662-.1117 2.067-.3491.6-.2374 1.061-.5865 1.396-1.0333.335-.4469.503-.9914.503-1.6058 0-.5586-.126-1.0054-.349-1.3685-.238-.363-.601-.6563-1.076-.8937-.488-.2373-1.1446-.4468-1.9824-.6423-.6005-.1536-1.0613-.2932-1.3824-.4329-.3212-.1256-.5586-.2792-.6982-.4468-.1397-.1676-.2095-.377-.2095-.6423 0-.3631.1397-.6563.4329-.8518.2793-.1955.6842-.3072 1.2148-.3072.4469 0 .8378.1117 1.159.3072.3072.2095.4887.4608.5446.754.0698.1816.2092.2653.4192.2653h1.34c.084 0 .14-.0279.196-.0977.056-.0559.083-.1257.083-.2095-.027-.3909-.181-.7959-.46-1.2148-.294-.4189-.726-.754-1.285-1.0333-.5725-.2793-1.2427-.4189-1.9968-.4189-.754 0-1.3963.1257-1.9549.377-.5585.2514-.9774.5865-1.2707 1.0194-.2932.4328-.4328.9216-.4328 1.4522-.014.8238.2373 1.4522.754 1.8851.5166.4328 1.3265.7819 2.4297 1.0472.6702.1816 1.1729.3352 1.508.4608.3352.1257.5865.2793.7541.4469.1674.1675.2514.377.2514.6283 0 .391-.1676.6982-.5028.9216-.3351.2235-.8099.3352-1.4522.3352-.5865 0-1.0473-.0978-1.3824-.3212-.3351-.2234-.5446-.4887-.6284-.8099-.0558-.0838-.1117-.1396-.1815-.1955-.0698-.0558-.1536-.0838-.2374-.0838h-1.2846c-.0838 0-.1397.0419-.1955.0978-.0559.0698-.0838.1396-.0838.2094.014.4888.1676.9356.4748 1.3545.3072.4189.754.768 1.3544 1.0194zm10.6904-.405c.419.4468 1.061.6563 1.913.6563h1.145c.098 0 .181-.0279.237-.0977.056-.0559.098-.1397.098-.2374v-.8797c0-.0978-.042-.1816-.098-.2374-.056-.0559-.139-.0978-.237-.0978h-.978c-.321 0-.544-.0977-.684-.3072-.139-.1955-.209-.5027-.209-.9076v-3.0022h1.745c.084 0 .168-.0279.238-.0977.056-.0559.097-.1397.097-.2374v-.8239c0-.0837-.041-.1675-.097-.2373-.07-.0559-.154-.0978-.238-.0978h-1.745v-2.318c0-.0977-.042-.1815-.098-.2373-.056-.0559-.14-.0978-.237-.0978h-1.159c-.098 0-.182.0419-.238.0978-.069.0558-.097.1396-.097.2373v2.318h-1.104c-.097 0-.181.0419-.237.0978-.07.0698-.098.1536-.098.2373v.8239c0 .0977.028.1815.098.2374.056.0698.14.0977.237.0977h1.104v3.1558c0 .8657.209 1.5081.642 1.9549zm7.047-.014c.6.5586 1.452.8379 2.541.8379s1.927-.2793 2.528-.8379c.6-.5585.921-1.3265.963-2.3179.014-.0978.028-.3072.028-.6144s-.014-.5027-.028-.6144c-.042-.9775-.363-1.7455-.977-2.304-.615-.5586-1.453-.8518-2.514-.8518-1.075 0-1.913.2932-2.527.8518-.615.5585-.936 1.3265-.964 2.304l-.028.6144.028.6144c.028.9914.349 1.7594.95 2.3179zm2.541-.5725c-.502 0-.879-.1536-1.145-.4608-.279-.3072-.419-.754-.419-1.3544l-.028-.5446.028-.5446c0-.5865.14-1.0473.419-1.3545.266-.3072.643-.4747 1.145-.4747.489 0 .866.1675 1.145.4747.266.3072.405.768.419 1.3545.014.0977.028.2793.028.5446 0 .2793-.014.4608-.028.5446-.014.6004-.153 1.0472-.419 1.3544-.265.3072-.642.4608-1.145.4608zm6.909 1.1451c.07.0698.154.0977.237.0977h1.257c.084 0 .168-.0279.238-.0977.055-.0559.097-.1397.097-.2374V37.057c0-.4328.126-.7819.377-1.0333.252-.2513.587-.377 1.02-.377h1.117c.098 0 .181-.0279.237-.0977.056-.0559.098-.1397.098-.2374v-1.0194c0-.0977-.042-.1815-.098-.2373-.07-.0559-.153-.0978-.237-.0978h-.587c-.893 0-1.564.3072-2.01.9216l-.014-.5725c0-.0977-.042-.1815-.098-.2513-.07-.0559-.154-.0978-.252-.0978h-1.145c-.097 0-.181.0419-.237.0978-.07.0698-.098.1536-.098.2513v6.5769c0 .0977.028.1815.098.2374zm8.154-.6563c.614.6004 1.438.8936 2.5.8936.642 0 1.2-.1117 1.703-.3351.503-.2234.88-.4748 1.145-.782.251-.3072.391-.5725.391-.7959 0-.0838-.028-.1396-.084-.1955-.069-.0419-.139-.0698-.223-.0698h-1.229c-.112 0-.181.014-.223.0419-.056.0279-.112.0838-.196.1815-.335.4329-.782.6424-1.312.6424-.475 0-.838-.1676-1.103-.5027-.266-.3352-.405-.768-.405-1.2987v-.1117h4.635c.084 0 .168-.0279.238-.0977.056-.0559.098-.1396.098-.2374v-.2932c0-1.1171-.308-2.0108-.908-2.681-.6-.6703-1.452-1.0054-2.555-1.0054-1.09 0-1.927.3351-2.528 1.0054-.614.6702-.907 1.5918-.907 2.7508v.3491c.028 1.1031.349 1.9549.963 2.5414zm4.008-3.5189h-3.044v-.0279c-.014-.5446.111-.9775.391-1.3126.279-.3351.642-.5027 1.117-.5027.474 0 .837.1676 1.117.5027.279.3351.419.768.419 1.3126v.0279z" fill="#646464"/><defs><clipPath id="clip0_40_5125"><path fill="#fff" transform="translate(18.3274 17)" d="M0 0h24.4364v24.4364H0z"/></clipPath></defs></svg>