<svg width="430" height="349" viewBox="0 0 430 349" fill="none" xmlns="http://www.w3.org/2000/svg"><g clip-path="url(#clip0_186_11875)"><path fill="#93E2FA" d="M0 0h430v349H0z"/><path d="M8 144.724c0-5.822 3.1629-11.185 8.2584-14.002l83.9996-46.4419c4.818-2.6634 10.666-2.6634 15.484 0l84 46.4419c5.095 2.817 8.258 8.18 8.258 14.002v99.449c0 5.866-3.21 11.261-8.364 14.06l-84 45.62c-4.762 2.586-10.51 2.586-15.272 0l-84-45.62C11.2095 255.434 8 250.039 8 244.173v-99.449z" fill="url(#paint0_linear_186_11875)"/><path d="M149 316.949c0-5.83 3.171-11.199 8.277-14.013l72-39.68c4.808-2.649 10.638-2.649 15.446 0l72 39.68c5.106 2.814 8.277 8.183 8.277 14.013v84.879c0 5.873-3.218 11.275-8.383 14.071l-72 38.977c-4.752 2.573-10.482 2.573-15.234 0l-72-38.977c-5.165-2.796-8.383-8.198-8.383-14.071v-84.879z" fill="url(#paint1_linear_186_11875)"/><path d="M207-28.5816c0-5.8208 3.161-11.1823 8.254-14.0002l87-48.1329c4.82-2.6664 10.672-2.6664 15.492 0l87 48.1329c5.093 2.8179 8.254 8.1794 8.254 14.0002V74.5088c0 5.864-3.208 11.2581-8.36 14.0581l-87 47.2811c-4.764 2.589-10.516 2.589-15.28 0l-87-47.2811c-5.152-2.8-8.36-8.1941-8.36-14.0581V-28.5816z" fill="url(#paint2_linear_186_11875)"/><circle cx="103.5" cy="182.5" r="154.5" fill="url(#paint3_radial_186_11875)"/><path fill="url(#paint4_linear_186_11875)" d="M21 319h171v30H21z"/></g><defs><linearGradient id="paint0_linear_186_11875" x1="42.9633" y1="108.378" x2="146.471" y2="280.795" gradientUnits="userSpaceOnUse"><stop stop-color="#BCEFFF"/><stop offset="1" stop-color="#66C5E2"/></linearGradient><linearGradient id="paint1_linear_186_11875" x1="179.768" y1="283.893" x2="270.427" y2="435.391" gradientUnits="userSpaceOnUse"><stop stop-color="#7BDCF9"/><stop offset="1" stop-color="#66C5E2"/></linearGradient><linearGradient id="paint2_linear_186_11875" x1="243.012" y1="-65.7511" x2="349.732" y2="111.895" gradientUnits="userSpaceOnUse"><stop stop-color="#93E2FA"/><stop offset="1" stop-color="#66C5E2"/></linearGradient><linearGradient id="paint4_linear_186_11875" x1="106.5" y1="371" x2="107" y2="324" gradientUnits="userSpaceOnUse"><stop stop-color="#D9D9D9"/><stop offset="1" stop-color="#D9D9D9" stop-opacity="0"/></linearGradient><radialGradient id="paint3_radial_186_11875" cx="0" cy="0" r="1" gradientUnits="userSpaceOnUse" gradientTransform="rotate(90 -39.5 143) scale(154.5)"><stop stop-color="#00F0FF"/><stop offset="1" stop-color="#fff" stop-opacity="0"/></radialGradient><clipPath id="clip0_186_11875"><path fill="#fff" d="M0 0h430v349H0z"/></clipPath></defs></svg>