<svg width="40" height="40" viewBox="0 0 40 40" fill="none" xmlns="http://www.w3.org/2000/svg">
<rect width="40" height="40" rx="6" fill="white"/>
<rect width="40" height="40" fill="#F18D8D"/>
<rect width="40" height="40" fill="url(#paint0_linear)"/>
<rect y="31.0156" width="40" height="8.98438" fill="#6ACFED"/>
<path d="M28.4007 34.315L27.6345 36.4608L26.8436 34.315H26.3008L27.3819 37.1127L26.902 38.3021H27.1725C27.337 38.3021 27.4852 38.1965 27.5458 38.0355L28.9481 34.3145L28.4007 34.315Z" fill="white"/>
<path d="M18.398 34.2549C18.215 34.2549 18.0455 34.3009 17.895 34.3912C17.7811 34.4549 17.6817 34.5422 17.5986 34.6514V34.331H17.0996V37.239H17.5986V35.4962C17.6138 35.2484 17.6879 35.0584 17.8254 34.9139C17.9534 34.7794 18.1016 34.7139 18.2784 34.7139C18.7253 34.7139 18.9425 34.9688 18.9425 35.4933V37.239H19.4415V35.4608C19.4421 34.6608 19.0907 34.2549 18.398 34.2549Z" fill="white"/>
<path d="M22.0935 34.7447C21.8847 34.4243 21.6006 34.2621 21.2476 34.2621C20.8468 34.2621 20.5414 34.4161 20.3163 34.7317C20.1075 35.0125 20.0059 35.3571 20.0059 35.7842C20.0059 36.2202 20.1103 36.5813 20.3157 36.8586C20.5436 37.1666 20.8642 37.3229 21.2678 37.3229C21.6377 37.3229 21.9234 37.1778 22.1193 36.8922V37.2468H22.5925V33.2402H22.0935V34.7447ZM21.8892 34.9984C22.0317 35.196 22.1042 35.455 22.1042 35.7677V35.822C22.1042 36.1252 22.0402 36.3754 21.915 36.5648C21.7713 36.773 21.5771 36.8739 21.3205 36.8739C21.0483 36.8739 20.8395 36.7683 20.7008 36.5601C20.5767 36.3724 20.5161 36.1182 20.5161 35.7836C20.5161 35.4491 20.5779 35.199 20.7053 35.019L20.7059 35.0178C20.8423 34.8131 21.0544 34.7093 21.3362 34.7093C21.5675 34.7105 21.7488 34.8049 21.8892 34.9984Z" fill="white"/>
<path d="M25.2263 34.7376C25.0175 34.4173 24.7334 34.255 24.3803 34.255C23.9796 34.255 23.6742 34.409 23.4491 34.7246C23.2403 35.0055 23.1387 35.35 23.1387 35.7772C23.1387 36.2132 23.2431 36.5742 23.4485 36.8515C23.6764 37.1595 23.997 37.3158 24.4006 37.3158C24.7705 37.3158 25.0562 37.1707 25.2521 36.8852V37.2397H25.7253V33.2402H25.2263V34.7376ZM25.0214 34.9907C25.164 35.1884 25.2364 35.4474 25.2364 35.7606V35.8155C25.2364 36.1188 25.1724 36.3689 25.0472 36.5583C24.9035 36.7666 24.7093 36.8675 24.4528 36.8675C24.1805 36.8675 23.9717 36.7619 23.833 36.5536C23.709 36.3654 23.6484 36.1117 23.6484 35.7772C23.6484 35.4426 23.7101 35.1925 23.8375 35.0125L23.8381 35.0114C23.9745 34.8066 24.1867 34.7028 24.4685 34.7028C24.6997 34.7028 24.8811 34.7972 25.0214 34.9907Z" fill="white"/>
<path d="M15.2288 34.2549C14.4295 34.2549 13.8496 34.8986 13.8496 35.7859C13.8496 36.6768 14.4295 37.3228 15.2288 37.3228C16.0282 37.3228 16.6081 36.6762 16.6081 35.7859C16.6086 34.8986 16.0282 34.2549 15.2288 34.2549ZM16.0815 35.7859C16.0815 36.2939 15.8149 36.8396 15.2294 36.8396C14.6439 36.8396 14.3773 36.2933 14.3773 35.7859C14.3773 35.2815 14.6439 34.7381 15.2294 34.7381C15.8149 34.7381 16.0815 35.2815 16.0815 35.7859Z" fill="white"/>
<path d="M12.5256 33.2402H11.3968C11.1863 33.2402 11.0156 33.4196 11.0156 33.6408V36.838C11.0156 37.0592 11.1863 37.238 11.3962 37.238H11.5371V35.6356H12.5251C13.2228 35.6356 13.7095 35.1429 13.7095 34.4379C13.7106 33.7329 13.2234 33.2402 12.5256 33.2402ZM11.5377 33.7364H12.4706C12.8905 33.7364 13.1723 34.0184 13.1723 34.4385C13.1723 34.8586 12.8905 35.1406 12.4706 35.1406H11.5377V33.7364Z" fill="white"/>
<g filter="url(#filter0_d)">
<path fill-rule="evenodd" clip-rule="evenodd" d="M16.1518 5.34082C16.8171 5.34082 17.3563 5.88482 17.3563 6.55587L17.3563 25.1155C17.3563 25.7866 16.8171 26.3306 16.1518 26.3306C15.4865 26.3306 14.9472 25.7866 14.9472 25.1155L14.9472 6.55587C14.9472 5.88482 15.4865 5.34082 16.1518 5.34082ZM20.3076 7.58925C20.984 7.58925 21.5323 8.13454 21.5323 8.80718V16.8108C21.5323 17.4834 20.984 18.0287 20.3076 18.0287C19.6313 18.0287 19.083 17.4834 19.083 16.8108V8.80718C19.083 8.13454 19.6313 7.58925 20.3076 7.58925ZM13.1797 10.5384C13.1797 9.86355 12.6315 9.31644 11.9551 9.31644C11.2788 9.31644 10.7305 9.86355 10.7305 10.5384V16.1247C10.7305 16.7996 11.2788 17.3468 11.9551 17.3468C12.6315 17.3468 13.1797 16.7996 13.1797 16.1247L13.1797 10.5384ZM28.6587 11.4038C29.335 11.4038 29.8833 11.9515 29.8833 12.6272V16.1228C29.8833 16.7985 29.335 17.3462 28.6587 17.3462C27.9823 17.3462 27.4341 16.7985 27.4341 16.1228V12.6272C27.4341 11.9515 27.9823 11.4038 28.6587 11.4038ZM25.6675 8.32458C25.6675 7.65264 25.1282 7.10793 24.463 7.10793C23.7977 7.10793 23.2584 7.65264 23.2584 8.32458V18.5792C23.2584 19.2511 23.7977 19.7959 24.463 19.7959C25.1282 19.7959 25.6675 19.2511 25.6675 18.5792V8.32458Z" fill="url(#paint1_linear)"/>
</g>
<defs>
<filter id="filter0_d" x="8.73047" y="4.34082" width="23.1529" height="24.9897" filterUnits="userSpaceOnUse" color-interpolation-filters="sRGB">
<feFlood flood-opacity="0" result="BackgroundImageFix"/>
<feColorMatrix in="SourceAlpha" type="matrix" values="0 0 0 0 0 0 0 0 0 0 0 0 0 0 0 0 0 0 127 0"/>
<feOffset dy="1"/>
<feGaussianBlur stdDeviation="1"/>
<feColorMatrix type="matrix" values="0 0 0 0 0 0 0 0 0 0 0 0 0 0 0 0 0 0 0.1 0"/>
<feBlend mode="normal" in2="BackgroundImageFix" result="effect1_dropShadow"/>
<feBlend mode="normal" in="SourceGraphic" in2="effect1_dropShadow" result="shape"/>
</filter>
<linearGradient id="paint0_linear" x1="20" y1="0" x2="20" y2="40" gradientUnits="userSpaceOnUse">
<stop stop-color="#FBFCFC"/>
<stop offset="1" stop-color="#EBF2F5"/>
</linearGradient>
<linearGradient id="paint1_linear" x1="27.204" y1="21.796" x2="6.9926" y2="5.34029" gradientUnits="userSpaceOnUse">
<stop stop-color="#0CA4D1"/>
<stop offset="1" stop-color="#BFFFFF"/>
</linearGradient>
</defs>
</svg>
