<svg width="107" height="24" viewBox="0 0 107 24" fill="none" xmlns="http://www.w3.org/2000/svg">
<path d="M3.41002 11.7798C7.24441 11.9797 8.69848 11.4363 8.69848 11.4363C12.3197 9.86777 11.4797 5.93612 11.4797 5.93612C10.551 2.57602 7.34084 2.4043 7.34084 2.4043L0.00195312 2.42224L0.0298673 14.2787H0.278557C0.907894 11.239 3.41002 11.7798 3.41002 11.7798Z" fill="white" fill-opacity="0.5"/>
<path d="M18.2353 14.1043L14.8069 14.153C14.8069 14.153 11.6196 14.8604 13.1727 18.3179C13.1727 18.3179 13.8477 19.4379 15.6316 19.3918L21.519 19.3816L21.4987 11.1364L21.2475 11.1338C21.2728 12.0411 21.0267 14.1607 18.2353 14.1043Z" fill="white" fill-opacity="0.5"/>
<path d="M2.10181 21.7424C2.15256 21.745 2.20586 21.7475 2.25915 21.7475C2.37842 21.7475 2.49515 21.7501 2.6068 21.7321V21.5732L2.59158 14.5275V14.4532C2.59158 14.2969 2.71339 14.1687 2.86311 14.1661C2.86311 14.1661 3.34526 14.161 3.34526 14.1661L6.93096 14.1585L7.035 14.1533C10.8922 14.1431 14.0135 10.9778 14.0034 7.08199C13.9932 3.18622 10.8592 0.0337182 7.00201 0.0439702L2.21347 0.0465333C1.67295 0.0465333 1.17811 0.243885 0.794922 0.57195L0.924342 0.574513L6.72033 0.561698H7.00455C10.5826 0.551446 13.4882 3.47584 13.4959 7.08712C13.506 10.6984 10.6131 13.633 7.035 13.6407L6.92842 13.6459L3.44423 13.6535L2.86564 13.6587C2.43171 13.6612 2.08405 14.0149 2.08405 14.4506V14.525L2.10181 21.7424Z" fill="white"/>
<path d="M1.09106 21.4143L1.0733 14.53V14.4557C1.07076 13.451 1.87266 12.636 2.86234 12.6334H3.12879L6.92512 12.6231L7.02662 12.618C10.049 12.6103 12.4953 10.1293 12.4876 7.07679C12.4826 4.02682 10.0261 1.55864 7.00378 1.56377H6.71703L0.213034 1.58171H0.119141C0.177507 1.39973 0.261249 1.22801 0.362755 1.06911H0.436347L6.74494 1.05373H7.00378C10.3053 1.04604 12.9901 3.74232 12.9977 7.07679C13.0028 10.4138 10.3332 13.1229 7.0317 13.1306L6.90228 13.1357L2.86742 13.1434C2.15434 13.146 1.58083 13.7304 1.58083 14.4531V14.5275L1.59605 21.5373L1.59352 21.6449C1.41334 21.5885 1.24586 21.5117 1.09106 21.4143Z" fill="white"/>
<path d="M20.4788 0.476985L20.5041 11.3723V11.5159C20.5067 12.5206 19.7022 13.3382 18.7049 13.3407H18.5654L15.5202 13.3484L15.2867 13.3535C13.4266 13.3587 11.9218 14.8862 11.9243 16.7649C11.9294 18.6436 13.4393 20.166 15.302 20.1609H15.7334L21.339 20.1481L21.4253 20.1455C21.3695 20.3275 21.2908 20.4992 21.1918 20.6581L21.1183 20.6607L15.7384 20.6735L15.3045 20.676C13.1653 20.6812 11.4244 18.9332 11.4219 16.7726C11.4168 14.612 13.1475 12.8537 15.2867 12.8486L15.4796 12.8537L18.5501 12.8461H18.7024C19.4231 12.8435 20.0068 12.2514 20.0042 11.5235L20.0017 11.3903L19.9763 0.238625L19.9712 0.118164C20.1514 0.177113 20.3214 0.261692 20.4762 0.364213L20.4788 0.476985Z" fill="white"/>
<path d="M19.467 0.115387L19.4924 11.3901L19.4899 11.5182C19.4899 11.959 19.1371 12.3179 18.7007 12.3204H18.4444L15.5768 12.3281L15.3104 12.3307H15.285C12.8666 12.3358 10.9101 14.3221 10.9151 16.7647C10.9202 19.2072 12.8869 21.1833 15.3053 21.1782L15.7367 21.1807L20.614 21.1679L20.7536 21.1654C20.3679 21.4986 19.868 21.701 19.3198 21.7036H19.1346L15.7392 21.7139H15.3078C12.5951 21.7215 10.3924 19.5045 10.3848 16.7673C10.3797 14.0274 12.5722 11.8027 15.285 11.795H15.4474L18.6017 11.7873L18.7007 11.7822C18.8453 11.7822 18.962 11.6643 18.962 11.5182L18.9646 11.3747L18.9392 0.164084L18.9367 0.0128665C19.0458 -0.00507456 19.1574 0.00261446 19.2716 0.00261446C19.3376 0.00261446 19.4036 0.00517747 19.467 0.0103035V0.115387Z" fill="white"/>
<path d="M6.98615 2.07326H6.61058L0 2.08864V2.61662H0.131958L6.70447 2.60124L6.7806 2.59868H6.96585L7.09273 2.60124C9.50096 2.6525 11.4397 4.63627 11.4448 7.08138C11.4499 9.56237 9.4629 11.5795 7.00645 11.5846L6.90494 11.5897L3.18983 11.6H2.83963C1.27644 11.6025 0.0101506 12.884 0.0126882 14.4628L0.0228388 19.1301V19.5248C0.0253765 20.081 0.230926 20.591 0.568434 20.9806L0.563358 20.7217L0.55067 14.5295V14.4552C0.548132 13.1711 1.57588 12.1305 2.84471 12.1279L3.11877 12.1228L6.87957 12.1151L7.00899 12.11C9.75473 12.1023 11.9726 9.84943 11.965 7.07882C11.9599 4.3082 9.72935 2.06557 6.98615 2.07326Z" fill="white"/>
<path d="M21.5184 19.1251H21.4093L15.7528 19.1379L15.3062 19.1353C14.0044 19.1379 12.9462 18.0742 12.9411 16.7594C12.9386 15.4446 13.9917 14.3758 15.2935 14.3707L15.4559 14.3656L18.4428 14.3579L18.7092 14.3553C20.2622 14.3527 21.5184 13.0789 21.5133 11.5104L21.4879 2.22972C21.4854 1.68892 21.2951 1.1917 20.9753 0.804688L20.9779 0.976409L21.0032 11.4104L21.0058 11.4694C21.0083 12.7765 19.9628 13.8376 18.6686 13.8401L18.5646 13.8453L15.4737 13.853L15.291 13.8581C13.71 13.8632 12.4311 15.1601 12.4336 16.7568C12.4361 18.3536 13.7227 19.6479 15.3037 19.6428L15.73 19.6402L21.4346 19.6274H21.5133L21.5184 19.1251Z" fill="white"/>
<path d="M104.527 6.67834L101.063 16L97.4871 6.67834H95.0332L99.9207 18.8321L97.751 23.9991H98.9742C99.7177 23.9991 100.388 23.5404 100.662 22.8407L107.001 6.67578L104.527 6.67834Z" fill="white"/>
<path d="M59.3071 6.41992C58.4798 6.41992 57.7134 6.61984 57.0333 7.01198C56.5182 7.28878 56.069 7.66811 55.6935 8.14226V6.75055H53.4375V19.3836H55.6935V11.8125C55.762 10.736 56.097 9.91074 56.7187 9.2828C57.2973 8.69844 57.9672 8.41394 58.7666 8.41394C60.7865 8.41394 61.7686 9.52116 61.7686 11.7997V19.3836H64.0246V11.6587C64.0271 8.18327 62.4385 6.41992 59.3071 6.41992Z" fill="white"/>
<path d="M76.0176 8.54739C75.0736 7.15567 73.7895 6.45085 72.1933 6.45085C70.3815 6.45085 69.001 7.11979 67.9834 8.491C67.0394 9.71099 66.5801 11.2078 66.5801 13.0634C66.5801 14.9575 67.0521 16.526 67.9809 17.7306C69.0111 19.0685 70.4601 19.7477 72.2847 19.7477C73.957 19.7477 75.2487 19.1172 76.1343 17.8767V19.4171H78.2735V2.01172H76.0176V8.54739ZM75.0939 9.64948C75.7384 10.5081 76.0658 11.6332 76.0658 12.9916V13.2274C76.0658 14.5448 75.7765 15.6315 75.2106 16.4543C74.561 17.359 73.6829 17.7973 72.5232 17.7973C71.2925 17.7973 70.3485 17.3385 69.7217 16.4338C69.1609 15.6187 68.8868 14.5141 68.8868 13.0608C68.8868 11.6076 69.1659 10.5209 69.742 9.73919L69.7445 9.73406C70.3612 8.8447 71.3204 8.39361 72.5943 8.39361C73.6398 8.39873 74.4595 8.80881 75.0939 9.64948Z" fill="white"/>
<path d="M90.1758 8.51663C89.2318 7.12492 87.9477 6.42009 86.3516 6.42009C84.5397 6.42009 83.1592 7.08904 82.1416 8.46024C81.1976 9.68024 80.7383 11.177 80.7383 13.0326C80.7383 14.9267 81.2103 16.4953 82.1391 17.6999C83.1693 19.0378 84.6183 19.717 86.4429 19.717C88.1152 19.717 89.4069 19.0865 90.2925 17.846V19.3863H92.4317V2.01172H90.1758V8.51663ZM89.2495 9.61616C89.8941 10.4748 90.2215 11.5999 90.2215 12.9609V13.1992C90.2215 14.5166 89.9322 15.6033 89.3663 16.4261C88.7166 17.3308 87.8386 17.7691 86.6789 17.7691C85.4482 17.7691 84.5041 17.3103 83.8773 16.4056C83.3165 15.588 83.0425 14.4859 83.0425 13.0326C83.0425 11.5794 83.3216 10.4927 83.8976 9.71099L83.9002 9.70587C84.5168 8.8165 85.4761 8.36541 86.75 8.36541C87.7955 8.36541 88.6151 8.77549 89.2495 9.61616Z" fill="white"/>
<path d="M44.985 6.41992C41.3714 6.41992 38.75 9.21616 38.75 13.0709C38.75 16.9411 41.3714 19.7476 44.985 19.7476C48.5986 19.7476 51.22 16.9385 51.22 13.0709C51.2225 9.21616 48.5986 6.41992 44.985 6.41992ZM48.8397 13.0709C48.8397 15.2777 47.6343 17.6485 44.9875 17.6485C42.3408 17.6485 41.1354 15.2751 41.1354 13.0709C41.1354 10.8796 42.3408 8.51903 44.9875 8.51903C47.6343 8.51903 48.8397 10.8796 48.8397 13.0709Z" fill="white"/>
<path d="M32.7638 2.01172H27.6606C26.7089 2.01172 25.9375 2.79087 25.9375 3.752V17.6409C25.9375 18.6021 26.7089 19.3787 27.658 19.3787H28.295V12.4175H32.7612C35.9155 12.4175 38.1157 10.2774 38.1157 7.21462C38.1208 4.15183 35.9181 2.01172 32.7638 2.01172ZM28.2975 4.16721H32.5151C34.4132 4.16721 35.6871 5.39233 35.6871 7.21719C35.6871 9.04205 34.4132 10.2672 32.5151 10.2672H28.2975V4.16721Z" fill="white"/>
</svg>
