<svg width="205" height="68" viewBox="0 0 205 68" fill="none" xmlns="http://www.w3.org/2000/svg">
<g clip-path="url(#clip0)">
<path d="M188.675 0.000221H16.3341C15.7059 0.000221 15.0853 0.000221 14.4587 0.003621C13.9342 0.007021 13.414 0.016898 12.8844 0.025211C11.7341 0.0386441 10.5865 0.139071 9.4515 0.325618C8.31814 0.516226 7.22028 0.875578 6.19505 1.39152C5.17108 1.91182 4.23545 2.58791 3.4221 3.39524C2.60447 4.2003 1.92292 5.13085 1.40365 6.15109C0.882947 7.16931 0.521888 8.26042 0.332947 9.38674C0.142208 10.5116 0.0395705 11.6495 0.0259539 12.7901C0.0100561 13.3114 0.0083772 13.8343 0 14.3556V53.6498C0.0083772 54.1777 0.0100561 54.6891 0.0259539 55.2171C0.0395747 56.3576 0.142213 57.4955 0.332947 58.6203C0.521367 59.7473 0.882447 60.839 1.40365 61.8576C1.92269 62.8746 2.60433 63.8013 3.4221 64.6019C4.23236 65.4128 5.1686 66.0894 6.19505 66.6057C7.22027 67.123 8.31801 67.4845 9.4515 67.6781C10.5867 67.8631 11.7342 67.9636 12.8844 67.9786C13.414 67.9902 13.9342 67.9968 14.4587 67.9968C15.0852 68.0002 15.706 68.0002 16.3341 68.0002H188.675C189.291 68.0002 189.916 68.0002 190.532 67.9968C191.054 67.9968 191.589 67.9902 192.111 67.9786C193.26 67.9644 194.405 67.8639 195.538 67.6781C196.675 67.4832 197.777 67.1218 198.807 66.6057C199.832 66.0891 200.768 65.4126 201.577 64.6019C202.393 63.7982 203.076 62.8721 203.601 61.8576C204.119 60.8383 204.476 59.7466 204.662 58.6203C204.853 57.4953 204.959 56.3577 204.98 55.2171C204.987 54.6891 204.987 54.1777 204.987 53.6498C205 53.0322 205 52.418 205 51.7904V16.2116C205 15.5891 205 14.9715 204.987 14.3556C204.987 13.8343 204.987 13.3114 204.98 12.7901C204.959 11.6493 204.853 10.5117 204.662 9.38667C204.476 8.261 204.118 7.16998 203.601 6.15102C202.544 4.10605 200.867 2.44146 198.807 1.39137C197.777 0.876686 196.675 0.51743 195.538 0.325465C194.405 0.138096 193.26 0.0376342 192.111 0.024973C191.589 0.016677 191.054 0.006715 190.532 0.0034C189.916 0 189.291 0 188.675 0V0.000221Z" fill="#A6A6A6"/>
<path d="M14.4676 66.5123C13.9456 66.5123 13.4363 66.5057 12.9184 66.4941C11.8456 66.4803 10.7754 66.3876 9.71636 66.2169C8.72889 66.0481 7.7723 65.7342 6.87815 65.2854C5.99219 64.8404 5.18412 64.2569 4.4849 63.5572C3.77557 62.8658 3.18501 62.0638 2.73664 61.1832C2.28333 60.2968 1.96961 59.3466 1.80641 58.3659C1.63017 57.3121 1.53482 56.2466 1.52117 55.1784C1.51031 54.8199 1.49609 53.6261 1.49609 53.6261V14.3552C1.49609 14.3552 1.51124 13.1798 1.52126 12.8345C1.53432 11.768 1.62912 10.7041 1.80483 9.65195C1.96833 8.66853 2.28229 7.71568 2.73585 6.82638C3.18257 5.94631 3.76985 5.14377 4.47492 4.44986C5.17919 3.74936 5.98984 3.16283 6.87731 2.71166C7.76941 2.26436 8.72419 1.95265 9.70966 1.78696C10.7721 1.61453 11.8461 1.5213 12.9226 1.50806L14.4684 1.4873H190.524L192.088 1.50889C193.155 1.52147 194.219 1.61387 195.272 1.7853C196.268 1.95306 197.232 2.26695 198.135 2.71664C199.913 3.62588 201.359 5.06438 202.272 6.83053C202.718 7.71369 203.027 8.65877 203.189 9.63369C203.367 10.6945 203.466 11.7668 203.486 12.8419C203.491 13.3234 203.491 13.8405 203.491 14.3552C203.505 14.9927 203.505 15.5995 203.505 16.2112V51.79C203.505 52.4076 203.505 53.0102 203.491 53.6178C203.491 54.1707 203.491 54.6771 203.485 55.1983C203.465 56.2543 203.367 57.3074 203.192 58.3493C203.032 59.3371 202.72 60.2946 202.267 61.1883C201.815 62.0594 201.228 62.8544 200.527 63.5439C199.827 64.2474 199.018 64.8343 198.13 65.2822C197.23 65.7344 196.267 66.0495 195.272 66.2169C194.213 66.3885 193.143 66.4812 192.07 66.4941C191.568 66.5057 191.043 66.5123 190.533 66.5123L188.676 66.5157L14.4676 66.5123Z" fill="black"/>
<path d="M42.4317 34.5119C42.4502 33.093 42.83 31.7018 43.5358 30.4676C44.2417 29.2335 45.2506 28.1966 46.4688 27.4534C45.6949 26.3567 44.674 25.4541 43.4871 24.8173C42.3002 24.1806 40.98 23.8272 39.6315 23.7854C36.7547 23.4857 33.9658 25.4936 32.4999 25.4936C31.0056 25.4936 28.7485 23.8151 26.318 23.8647C24.746 23.9151 23.2138 24.3688 21.8709 25.1815C20.5281 25.9942 19.4202 27.1382 18.6554 28.5021C15.3422 34.1944 17.8135 42.5602 20.9873 47.1615C22.5752 49.4145 24.431 51.9313 26.8592 51.8421C29.2355 51.7443 30.1229 50.3384 32.9912 50.3384C35.8329 50.3384 36.6655 51.8421 39.1431 51.7853C41.6928 51.7442 43.2993 49.5222 44.8315 47.2478C45.9724 45.6424 46.8503 43.868 47.4328 41.9905C45.9514 41.3688 44.6873 40.3281 43.7979 38.9982C42.9086 37.6683 42.4335 36.108 42.4317 34.5119Z" fill="white"/>
<path d="M37.7512 20.7592C39.1415 19.1031 39.8264 16.9744 39.6605 14.8252C37.5365 15.0466 35.5746 16.0539 34.1655 17.6465C33.4766 18.4246 32.949 19.3297 32.6128 20.3102C32.2766 21.2907 32.1384 22.3274 32.2062 23.3609C33.2686 23.3717 34.3196 23.1432 35.2801 22.6926C36.2406 22.2419 37.0855 21.5809 37.7512 20.7592Z" fill="white"/>
<path d="M72.4694 46.139H64.3605L62.4131 51.845H58.9785L66.6592 30.7344H70.2276L77.9083 51.845H74.4151L72.4694 46.139ZM65.2003 43.506H71.628L68.4594 34.2456H68.3707L65.2003 43.506Z" fill="white"/>
<path d="M94.4949 44.1494C94.4949 48.9324 91.9152 52.0053 88.0222 52.0053C87.036 52.0565 86.0552 51.8311 85.1922 51.3548C84.3291 50.8786 83.6186 50.1708 83.1421 49.3125H83.0684V56.9359H79.8848V36.4529H82.9664V39.0129H83.025C83.5234 38.1587 84.2459 37.4546 85.1155 36.9754C85.9852 36.4963 86.9694 36.2601 87.9636 36.2919C91.9001 36.2919 94.4949 39.3798 94.4949 44.1494ZM91.2226 44.1494C91.2226 41.0333 89.5998 38.9847 87.1238 38.9847C84.6913 38.9847 83.0551 41.0765 83.0551 44.1494C83.0551 47.2506 84.6913 49.3275 87.1238 49.3275C89.5998 49.3275 91.2226 47.2938 91.2226 44.1494Z" fill="white"/>
<path d="M111.567 44.1494C111.567 48.9323 108.987 52.0053 105.094 52.0053C104.108 52.0565 103.128 51.831 102.264 51.3548C101.401 50.8786 100.691 50.1708 100.214 49.3125H100.141V56.9359H96.957V36.4529H100.039V39.0129H100.097C100.596 38.1587 101.318 37.4546 102.188 36.9754C103.057 36.4963 104.042 36.2601 105.036 36.2919C108.972 36.2919 111.567 39.3798 111.567 44.1494ZM108.295 44.1494C108.295 41.0333 106.672 38.9847 104.196 38.9847C101.764 38.9847 100.127 41.0765 100.127 44.1494C100.127 47.2506 101.764 49.3274 104.196 49.3274C106.672 49.3274 108.295 47.2938 108.295 44.1494H108.295Z" fill="white"/>
<path d="M122.849 45.9625C123.085 48.056 125.134 49.4305 127.935 49.4305C130.618 49.4305 132.549 48.0559 132.549 46.1683C132.549 44.5297 131.384 43.5486 128.627 42.8762L125.87 42.2171C121.964 41.2808 120.15 39.4679 120.15 36.5261C120.15 32.8837 123.349 30.3818 127.891 30.3818C132.386 30.3818 135.468 32.8837 135.572 36.5261H132.358C132.166 34.4193 130.411 33.1477 127.846 33.1477C125.281 33.1477 123.526 34.4343 123.526 36.3069C123.526 37.7994 124.647 38.6776 127.389 39.3499L129.733 39.921C134.098 40.9454 135.911 42.6852 135.911 45.7731C135.911 49.7226 132.741 52.1962 127.699 52.1962C122.981 52.1962 119.796 49.7807 119.59 45.9623L122.849 45.9625Z" fill="white"/>
<path d="M142.782 32.8105V36.4529H145.731V38.9548H142.782V47.4398C142.782 48.758 143.373 49.3723 144.669 49.3723C145.019 49.3662 145.369 49.3418 145.716 49.2992V51.7861C145.133 51.8942 144.541 51.9431 143.948 51.9322C140.808 51.9322 139.583 50.7618 139.583 47.7768V38.9548H137.328V36.4529H139.583V32.8105H142.782Z" fill="white"/>
<path d="M147.441 44.1494C147.441 39.3067 150.316 36.2637 154.797 36.2637C159.294 36.2637 162.155 39.3067 162.155 44.1494C162.155 49.0054 159.309 52.0351 154.797 52.0351C150.287 52.0351 147.441 49.0054 147.441 44.1494ZM158.911 44.1494C158.911 40.8274 157.377 38.8668 154.797 38.8668C152.218 38.8668 150.685 40.8424 150.685 44.1494C150.685 47.4847 152.218 49.4304 154.797 49.4304C157.377 49.4304 158.911 47.4847 158.911 44.1494H158.911Z" fill="white"/>
<path d="M164.779 36.4528H167.816V39.0725H167.889C168.095 38.2543 168.578 37.5312 169.257 37.0248C169.937 36.5184 170.771 36.2596 171.62 36.2917C171.987 36.2905 172.353 36.33 172.711 36.4096V39.3647C172.248 39.2242 171.765 39.1598 171.281 39.1738C170.818 39.1552 170.357 39.2361 169.929 39.411C169.501 39.5859 169.116 39.8506 168.801 40.1871C168.486 40.5235 168.248 40.9236 168.103 41.3599C167.958 41.7963 167.911 42.2585 167.963 42.7149V51.8441H164.779L164.779 36.4528Z" fill="white"/>
<path d="M187.39 47.3236C186.961 50.1177 184.219 52.0351 180.711 52.0351C176.199 52.0351 173.398 49.0352 173.398 44.2225C173.398 39.3947 176.214 36.2637 180.577 36.2637C184.868 36.2637 187.567 39.1889 187.567 43.8556V44.938H176.612V45.1289C176.562 45.6953 176.633 46.266 176.822 46.8029C177.011 47.3398 177.312 47.8308 177.707 48.2431C178.102 48.6554 178.58 48.9797 179.111 49.1944C179.641 49.4092 180.212 49.5094 180.785 49.4885C181.537 49.5584 182.292 49.3855 182.937 48.9955C183.583 48.6054 184.084 48.0191 184.366 47.3236L187.39 47.3236ZM176.627 42.73H184.382C184.41 42.2207 184.332 41.711 184.153 41.2329C183.974 40.7549 183.697 40.3188 183.339 39.952C182.982 39.5852 182.552 39.2956 182.077 39.1014C181.602 38.9072 181.091 38.8127 180.577 38.8236C180.059 38.8206 179.545 38.9194 179.065 39.1145C178.585 39.3095 178.149 39.5969 177.782 39.9601C177.415 40.3233 177.124 40.755 176.925 41.2305C176.727 41.7059 176.626 42.2155 176.627 42.73V42.73Z" fill="white"/>
<path d="M64.8016 14.8435C65.4691 14.796 66.1389 14.8961 66.7626 15.1365C67.3864 15.3769 67.9486 15.7518 68.4087 16.2339C68.8689 16.7161 69.2154 17.2936 69.4234 17.9247C69.6314 18.5559 69.6956 19.225 69.6114 19.8838C69.6114 23.1244 67.8465 24.9872 64.8016 24.9872H61.1094V14.8435H64.8016ZM62.697 23.5526H64.6243C65.1012 23.5809 65.5785 23.5033 66.0214 23.3255C66.4643 23.1476 66.8617 22.874 67.1846 22.5246C67.5076 22.1751 67.7479 21.7586 67.8881 21.3053C68.0284 20.8521 68.065 20.3735 67.9953 19.9044C68.0599 19.4372 68.0196 18.9616 67.8772 18.5117C67.7348 18.0618 67.4939 17.6486 67.1717 17.302C66.8495 16.9553 66.4541 16.6836 66.0137 16.5064C65.5732 16.3292 65.0988 16.2509 64.6243 16.277H62.697V23.5526Z" fill="white"/>
<path d="M71.4059 21.1564C71.3574 20.6534 71.4154 20.1458 71.5761 19.6663C71.7369 19.1868 71.9969 18.7459 72.3394 18.3719C72.6819 17.9979 73.0994 17.6991 73.5652 17.4947C74.0309 17.2902 74.5345 17.1846 75.0438 17.1846C75.553 17.1846 76.0567 17.2902 76.5224 17.4947C76.9881 17.6991 77.4056 17.9979 77.7481 18.3719C78.0907 18.7459 78.3506 19.1868 78.5114 19.6663C78.6722 20.1458 78.7302 20.6534 78.6817 21.1564C78.7311 21.66 78.6738 22.1683 78.5134 22.6486C78.3531 23.1288 78.0933 23.5705 77.7507 23.9452C77.4081 24.3199 76.9902 24.6194 76.524 24.8243C76.0579 25.0292 75.5536 25.135 75.0438 25.135C74.5339 25.135 74.0297 25.0292 73.5635 24.8243C73.0973 24.6194 72.6795 24.3199 72.3369 23.9452C71.9943 23.5705 71.7344 23.1288 71.5741 22.6486C71.4138 22.1683 71.3565 21.66 71.4059 21.1564ZM77.1157 21.1564C77.1157 19.4971 76.3646 18.5267 75.0463 18.5267C73.723 18.5267 72.9785 19.4971 72.9785 21.1564C72.9785 22.829 73.723 23.7919 75.0463 23.7919C76.3646 23.7919 77.1158 22.8224 77.1158 21.1564H77.1157Z" fill="white"/>
<path d="M88.3516 24.987H86.7723L85.178 19.3491H85.0576L83.4699 24.987H81.9057L79.7793 17.332H81.3235L82.7053 23.1732H82.8191L84.4051 17.332H85.8656L87.4516 23.1732H87.572L88.9472 17.332H90.4696L88.3516 24.987Z" fill="white"/>
<path d="M92.2598 17.3321H93.7253V18.5481H93.8391C94.0321 18.1114 94.3576 17.7452 94.7702 17.5008C95.1828 17.2563 95.6621 17.1457 96.1411 17.1843C96.5164 17.1563 96.8933 17.2124 97.2438 17.3486C97.5943 17.4848 97.9095 17.6975 98.1659 17.9709C98.4223 18.2443 98.6135 18.5715 98.7252 18.9282C98.8369 19.2849 98.8662 19.662 98.8112 20.0315V24.987H97.2887V20.4108C97.2887 19.1807 96.7501 18.5689 95.6241 18.5689C95.3693 18.5571 95.1149 18.6001 94.8784 18.695C94.6419 18.79 94.4288 18.9345 94.2539 19.1188C94.0789 19.303 93.9462 19.5226 93.8648 19.7625C93.7834 20.0025 93.7552 20.257 93.7822 20.5088V24.987H92.2598L92.2598 17.3321Z" fill="white"/>
<path d="M101.236 14.3438H102.759V24.987H101.236V14.3438Z" fill="white"/>
<path d="M104.875 21.1566C104.826 20.6535 104.884 20.1459 105.045 19.6663C105.206 19.1868 105.466 18.7459 105.808 18.3719C106.151 17.9979 106.568 17.6991 107.034 17.4947C107.5 17.2902 108.004 17.1846 108.513 17.1846C109.022 17.1846 109.526 17.2902 109.992 17.4947C110.457 17.6991 110.875 17.9979 111.217 18.3719C111.56 18.7459 111.82 19.1868 111.981 19.6663C112.142 20.1459 112.2 20.6535 112.151 21.1566C112.201 21.6602 112.143 22.1684 111.983 22.6487C111.822 23.129 111.563 23.5707 111.22 23.9454C110.877 24.3201 110.459 24.6195 109.993 24.8244C109.527 25.0293 109.023 25.1351 108.513 25.1351C108.003 25.1351 107.499 25.0293 107.033 24.8244C106.566 24.6195 106.149 24.3201 105.806 23.9454C105.463 23.5707 105.203 23.129 105.043 22.6487C104.883 22.1684 104.825 21.6602 104.875 21.1566ZM110.584 21.1566C110.584 19.4972 109.833 18.5269 108.515 18.5269C107.192 18.5269 106.447 19.4972 106.447 21.1566C106.447 22.8292 107.192 23.7921 108.515 23.7921C109.833 23.7921 110.584 22.8225 110.584 21.1566H110.584Z" fill="white"/>
<path d="M113.754 22.8225C113.754 21.4445 114.788 20.6501 116.623 20.5372L118.713 20.4177V19.757C118.713 18.9485 118.174 18.4919 117.133 18.4919C116.283 18.4919 115.695 18.8016 115.526 19.3428H114.052C114.207 18.0279 115.454 17.1846 117.204 17.1846C119.138 17.1846 120.228 18.14 120.228 19.757V24.9873H118.763V23.9115H118.642C118.398 24.2974 118.055 24.612 117.647 24.8232C117.24 25.0343 116.784 25.1345 116.325 25.1134C116.001 25.1469 115.674 25.1126 115.364 25.0128C115.055 24.913 114.77 24.7499 114.527 24.5341C114.285 24.3182 114.091 24.0544 113.958 23.7596C113.825 23.4648 113.755 23.1455 113.754 22.8225ZM118.713 22.1683V21.5284L116.829 21.6479C115.766 21.7184 115.285 22.077 115.285 22.7519C115.285 23.4408 115.887 23.8418 116.715 23.8418C116.958 23.8661 117.203 23.8418 117.436 23.7703C117.669 23.6987 117.885 23.5814 118.071 23.4253C118.258 23.2691 118.411 23.0774 118.521 22.8615C118.631 22.6455 118.696 22.4098 118.713 22.1683Z" fill="white"/>
<path d="M122.229 21.1562C122.229 18.7374 123.482 17.2051 125.431 17.2051C125.913 17.183 126.391 17.2976 126.81 17.5354C127.229 17.7732 127.571 18.1245 127.796 18.5481H127.91V14.3438H129.432V24.987H127.974V23.7776H127.853C127.61 24.1983 127.257 24.5452 126.83 24.7806C126.403 25.016 125.919 25.131 125.431 25.1132C123.468 25.1132 122.229 23.5809 122.229 21.1562ZM123.801 21.1562C123.801 22.7799 124.572 23.7569 125.862 23.7569C127.145 23.7569 127.938 22.7658 127.938 21.1629C127.938 19.5675 127.137 18.5622 125.862 18.5622C124.581 18.5622 123.801 19.5459 123.801 21.1562H123.801Z" fill="white"/>
<path d="M135.732 21.1564C135.684 20.6534 135.742 20.1458 135.902 19.6663C136.063 19.1868 136.323 18.7459 136.666 18.3719C137.008 17.9979 137.426 17.6991 137.891 17.4947C138.357 17.2902 138.861 17.1846 139.37 17.1846C139.879 17.1846 140.383 17.2902 140.849 17.4947C141.314 17.6991 141.732 17.9979 142.074 18.3719C142.417 18.7459 142.677 19.1868 142.838 19.6663C142.998 20.1458 143.056 20.6534 143.008 21.1564C143.057 21.66 143 22.1683 142.84 22.6486C142.679 23.1288 142.419 23.5705 142.077 23.9452C141.734 24.3199 141.316 24.6194 140.85 24.8243C140.384 25.0292 139.88 25.135 139.37 25.135C138.86 25.135 138.356 25.0292 137.89 24.8243C137.423 24.6194 137.006 24.3199 136.663 23.9452C136.32 23.5705 136.061 23.1288 135.9 22.6486C135.74 22.1683 135.683 21.66 135.732 21.1564ZM141.442 21.1564C141.442 19.4971 140.691 18.5267 139.372 18.5267C138.049 18.5267 137.305 19.4971 137.305 21.1564C137.305 22.829 138.049 23.7919 139.372 23.7919C140.691 23.7919 141.442 22.8224 141.442 21.1564Z" fill="white"/>
<path d="M145.049 17.3321H146.514V18.5481H146.628C146.821 18.1114 147.147 17.7452 147.559 17.5008C147.972 17.2563 148.451 17.1457 148.93 17.1843C149.306 17.1563 149.682 17.2124 150.033 17.3486C150.383 17.4848 150.699 17.6975 150.955 17.9709C151.211 18.2443 151.403 18.5715 151.514 18.9282C151.626 19.2849 151.655 19.662 151.6 20.0315V24.987H150.078V20.4108C150.078 19.1807 149.539 18.5689 148.413 18.5689C148.158 18.5571 147.904 18.6001 147.667 18.695C147.431 18.79 147.218 18.9345 147.043 19.1188C146.868 19.303 146.735 19.5226 146.654 19.7625C146.572 20.0025 146.544 20.257 146.571 20.5088V24.987H145.049V17.3321Z" fill="white"/>
<path d="M160.204 15.4268V17.3675H161.875V18.64H160.204V22.5762C160.204 23.3781 160.537 23.7292 161.295 23.7292C161.489 23.7286 161.682 23.7169 161.875 23.6943V24.9527C161.602 25.0013 161.325 25.0271 161.047 25.0299C159.354 25.0299 158.68 24.4389 158.68 22.963V18.6399H157.455V17.3674H158.68V15.4268H160.204Z" fill="white"/>
<path d="M163.955 14.3438H165.464V18.5622H165.585C165.787 18.1214 166.121 17.7532 166.542 17.5078C166.963 17.2624 167.45 17.1517 167.937 17.1909C168.31 17.1708 168.683 17.2326 169.03 17.3721C169.376 17.5116 169.688 17.7252 169.941 17.9978C170.195 18.2704 170.385 18.5951 170.498 18.949C170.611 19.3028 170.643 19.677 170.593 20.0447V24.987H169.069V20.4174C169.069 19.1947 168.496 18.5755 167.42 18.5755C167.158 18.5542 166.895 18.5899 166.649 18.6801C166.402 18.7703 166.179 18.9128 165.994 19.0976C165.809 19.2825 165.667 19.5052 165.578 19.7502C165.488 19.9953 165.454 20.2567 165.478 20.5162V24.987H163.955L163.955 14.3438Z" fill="white"/>
<path d="M179.47 22.9205C179.263 23.6202 178.815 24.2253 178.204 24.6302C177.593 25.035 176.858 25.2138 176.128 25.1352C175.619 25.1485 175.114 25.0519 174.647 24.8521C174.181 24.6523 173.763 24.3541 173.424 23.9781C173.085 23.6022 172.833 23.1576 172.684 22.6751C172.536 22.1926 172.495 21.6838 172.564 21.184C172.496 20.6827 172.538 20.1728 172.686 19.6889C172.834 19.2049 173.086 18.7582 173.423 18.379C173.76 17.9998 174.176 17.6969 174.641 17.4908C175.107 17.2848 175.611 17.1804 176.121 17.1847C178.267 17.1847 179.562 18.6399 179.562 21.0437V21.5709H174.115V21.6555C174.091 21.9364 174.127 22.2192 174.219 22.4857C174.312 22.7521 174.46 22.9964 174.653 23.2029C174.847 23.4094 175.082 23.5735 175.343 23.6847C175.604 23.7958 175.885 23.8516 176.169 23.8485C176.534 23.8919 176.903 23.8268 177.229 23.6616C177.556 23.4963 177.826 23.2384 178.005 22.9205L179.47 22.9205ZM174.115 20.4535H178.011C178.031 20.1966 177.995 19.9386 177.908 19.6959C177.821 19.4533 177.683 19.2315 177.504 19.0448C177.326 18.858 177.109 18.7104 176.87 18.6115C176.63 18.5126 176.372 18.4646 176.112 18.4705C175.849 18.4672 175.588 18.5163 175.344 18.6148C175.1 18.7133 174.879 18.8592 174.692 19.0441C174.506 19.2289 174.359 19.4488 174.26 19.6909C174.161 19.9329 174.112 20.1923 174.115 20.4535H174.115Z" fill="white"/>
</g>
<defs>
<clipPath id="clip0">
<rect width="205" height="68" fill="white"/>
</clipPath>
</defs>
</svg>
