<svg width="100" height="100" viewBox="0 0 100 100" fill="none" xmlns="http://www.w3.org/2000/svg"><rect width="100" height="100" rx="50" fill="url(#paint0_linear_132_5716)"/><path d="M25.8743 74.0647c-.6208-.6235-.9313-1.3429-.9313-2.1582 0-.8154.3105-1.5348.9313-2.1583l17.3365-17.4101c.2866-.2877.597-.4921.9313-.6129.3343-.119.6925-.1784 1.0746-.1784s.7403.0594 1.0746.1784c.3343.1208.6447.3252.9313.6129l9.4562 9.4964 18.3395-20.7194c.5253-.6235 1.2064-.9352 2.0431-.9352.8348 0 1.5388.2877 2.1119.8633.5253.5275.8004 1.1635.8253 1.9079.0229.7424-.2283 1.4014-.7537 1.977L58.6847 68.1655c-.2865.3357-.6084.587-.9657.7539-.3591.1689-.7297.2533-1.1118.2533-.3821 0-.7517-.072-1.109-.2159-.3591-.1438-.682-.3597-.9685-.6474l-9.313-9.3526-15.0441 15.1079c-.6208.6235-1.3372.9353-2.1491.9353-.8119 0-1.5283-.3118-2.1492-.9353zm.7164-18.5611c-.2388 0-.4776-.0604-.7164-.1813-.2387-.1189-.4298-.3223-.5731-.6101l-1.4327-3.0935-3.0805-1.4388c-.2865-.1439-.489-.3358-.6075-.5756-.1203-.2398-.1805-.4796-.1805-.7194s.0602-.4796.1805-.7194c.1185-.2398.321-.4317.6075-.5756l3.0805-1.4388 1.4327-3.0935c.1433-.2878.3344-.4921.5731-.613.2388-.1189.4776-.1784.7164-.1784s.4776.0595.7164.1784c.2388.1209.4298.3252.5731.613l1.4328 3.0935 3.0804 1.4388c.5254.2398.7881.6715.7881 1.295 0 .6235-.2627 1.0551-.7881 1.295l-3.0804 1.4388-1.4328 3.0935c-.1433.2878-.3343.4912-.5731.6101-.2388.1209-.4776.1813-.7164.1813zm31.5209-5.7554c-.2388 0-.4776-.0604-.7164-.1813-.2388-.1189-.4298-.3223-.5731-.6101l-1.4327-3.0935-3.0805-1.4388c-.2865-.1439-.4891-.3358-.6075-.5756-.1203-.2398-.1805-.4796-.1805-.7194s.0602-.4796.1805-.7194c.1184-.2398.321-.4317.6075-.5756l3.0805-1.4388 1.4327-3.0935c.1433-.2878.3343-.4921.5731-.613.2388-.1189.4776-.1784.7164-.1784s.4776.0595.7164.1784c.2388.1209.4298.3252.5731.613l1.4328 3.0935 3.0804 1.4388c.2866.1439.49.3358.6104.5756.1184.2398.1776.4796.1776.7194s-.0592.4796-.1776.7194c-.1204.2398-.3238.4317-.6104.5756l-3.0804 1.4388-1.4328 3.0935c-.1433.2878-.3343.4912-.5731.6101-.2388.1209-.4776.1813-.7164.1813zm-18.626-8.6331c-.2388 0-.4776-.0719-.7163-.2158-.2388-.1439-.4299-.3597-.5732-.6475l-1.8626-4.0288-4.0117-1.8705c-.2866-.1439-.5015-.3357-.6447-.5755-.1433-.2398-.215-.4796-.215-.7194 0-.2399.0717-.4797.215-.7195.1432-.2398.3581-.4316.6447-.5755l4.0117-1.8705 1.8626-4.0288c.1433-.2878.3344-.5036.5732-.6475.2387-.1439.4775-.2158.7163-.2158.2388 0 .4776.0719.7164.2158.2388.1439.4298.3597.5731.6475l1.8626 4.0288 4.0118 1.8705c.2865.1439.5014.3357.6447.5755.1433.2398.2149.4796.2149.7195 0 .2398-.0716.4796-.2149.7194s-.3582.4316-.6447.5755l-4.0118 1.8705-1.8626 4.0288c-.1433.2878-.3343.5036-.5731.6475-.2388.1439-.4776.2158-.7164.2158z" fill="#fff"/><defs><linearGradient id="paint0_linear_132_5716" x1="50" y1="0" x2="50" y2="100" gradientUnits="userSpaceOnUse"><stop stop-color="#F2CFAC"/><stop offset="1" stop-color="#FAE8D7"/></linearGradient></defs></svg>