<svg width="100" height="100" viewBox="0 0 100 100" fill="none" xmlns="http://www.w3.org/2000/svg"><rect width="100" height="100" rx="50" fill="url(#paint0_linear_144_5747)"/><path d="M70.1839 64.2857c-.8178.0036-1.6242.1868-2.3591.5357l-7.8943-7.6785h-6.2696v3.5714h4.7476l6.8203 6.6339c-.359.7148-.5479 1.4991-.5526 2.2947 0 1.0595.3231 2.0952.9282 2.9762.6052.881 1.4654 1.5676 2.4718 1.9731 1.0064.4055 2.1138.5116 3.1822.3049 1.0684-.2067 2.0498-.717 2.82-1.4662.7703-.7492 1.2948-1.7037 1.5074-2.7429.2125-1.0392.1034-2.1163-.3135-3.0952-.4168-.9789-1.1228-1.8156-2.0285-2.4042-.9057-.5887-1.9706-.9029-3.0599-.9029zm0 7.1429c-.3631 0-.718-.1048-1.02-.301-.3019-.1962-.5372-.4751-.6761-.8014-.139-.3263-.1753-.6853-.1045-1.0317.0708-.3464.2457-.6646.5024-.9143.2568-.2498.5839-.4198.94-.4887.3562-.069.7253-.0336 1.0608.1016.3354.1351.6222.364.8239.6577.2017.2936.3094.6389.3094.9921 0 .4736-.1934.9278-.5377 1.2626-.3443.3349-.8113.5231-1.2982.5231zm0-26.7857c-1.1354.0032-2.2419.3483-3.1675.9878-.9257.6394-1.6252 1.542-2.0024 2.5836H53.6609v3.5714H65.014c.3383.9235.9309 1.7389 1.7133 2.3569.7824.6181 1.7244 1.015 2.7231 1.1476.9987.1325 2.0156-.0045 2.9396-.3961.924-.3916 1.7196-1.0227 2.2998-1.8243.5802-.8016.9227-1.743.9901-2.7212.0674-.9781-.1429-1.9555-.608-2.8253-.4651-.8697-1.167-1.5984-2.029-2.1064-.8621-.508-1.8511-.7758-2.859-.774zm0 7.1428c-.3631 0-.718-.1047-1.02-.3009-.3019-.1963-.5372-.4751-.6761-.8014-.139-.3263-.1753-.6854-.1045-1.0318.0708-.3464.2457-.6646.5024-.9143.2568-.2497.5839-.4198.94-.4887.3562-.0689.7253-.0335 1.0608.1016.3354.1352.6222.364.8239.6577.2017.2937.3094.6389.3094.9921 0 .4736-.1934.9278-.5377 1.2627-.3443.3349-.8113.523-1.2982.523zm0-26.7857c-1.4603.0014-2.8603.5663-3.8929 1.5706-1.0326 1.0044-1.6133 2.3662-1.6148 3.7865.0063.8555.2255 1.6967.6389 2.4518l-6.8882 6.4768h-4.766v3.5714h6.2494l8.0779-7.5928c.7504.3183 1.5643.4698 2.3825.4435.8181-.0263 1.62-.2297 2.3472-.5954.7271-.3657 1.3613-.8846 1.8563-1.5188.495-.6342.8384-1.3678 1.0051-2.1473.1668-.7796.1527-1.5855-.0411-2.3591-.1939-.7736-.5626-1.4954-1.0794-2.1129-.5169-.6175-1.1688-1.1151-1.9083-1.4567-.7395-.3415-1.548-.5183-2.3666-.5176zm0 7.1429c-.3631 0-.718-.1048-1.02-.301-.3019-.1962-.5372-.4751-.6761-.8014-.139-.3263-.1753-.6853-.1045-1.0317.0708-.3464.2457-.6646.5024-.9143.2568-.2498.5839-.4199.94-.4888.3562-.0689.7253-.0335 1.0608.1017.3354.1351.6222.364.8239.6577.2017.2936.3094.6389.3094.992 0 .4736-.1934.9278-.5377 1.2627-.3443.3349-.8113.5231-1.2982.5231z" fill="#fff"/><path d="M53.3785 31.9913h3.6723v-3.6017h-3.6723c-1.0464.0035-2.0798.2275-3.0302.6569-.9504.4294-1.7956 1.0541-2.4782 1.8319-.6827-.7778-1.5279-1.4025-2.4783-1.8319-.9504-.4294-1.9838-.6534-3.0302-.6569h-1.8362c-4.3813.0048-8.5818 1.7139-11.6798 4.7524-3.0981 3.0385-4.8407 7.1582-4.8456 11.4553v10.8051c.0049 4.297 1.7475 8.4167 4.8456 11.4552 3.098 3.0385 7.2985 4.7476 11.6798 4.7524h1.8362c1.0464-.0034 2.0798-.2274 3.0302-.6568.9504-.4294 1.7956-1.0542 2.4783-1.832.6826.7778 1.5278 1.4026 2.4782 1.832.9504.4294 1.9838.6534 3.0302.6568h3.6723v-3.6017h-3.6723c-.9736-.001-1.9071-.3807-2.5956-1.056-.6885-.6752-1.0757-1.5908-1.0767-2.5457V35.593c.001-.9549.3882-1.8704 1.0767-2.5457.6885-.6752 1.622-1.055 2.5956-1.056zm-11.0169 36.017h-1.8362c-3.0876-.0054-6.0702-1.1-8.403-3.0838-2.3328-1.9838-3.8602-4.7244-4.3032-7.7213h3.5254v-3.6017h-3.6723v-7.2034h5.5085c1.4605-.0014 2.8607-.5711 3.8935-1.5839 1.0327-1.0129 1.6135-2.3862 1.615-3.8186v-3.6017h-3.6724v3.6017c0 .4776-.1934.9356-.5377 1.2734-.3444.3377-.8114.5274-1.2984.5274h-5.3616c.443-2.9969 1.9704-5.7375 4.3032-7.7213 2.3328-1.9838 5.3154-3.0783 8.403-3.0838h1.8362c.9736.001 1.9071.3808 2.5956 1.056.6885.6753 1.0757 1.5908 1.0767 2.5457v7.2034h-3.6723v3.6017h3.6723v7.2034h-3.6723c-1.4605.0014-2.8608.5711-3.8935 1.584-1.0327 1.0128-1.6135 2.3861-1.615 3.8186v3.6017h3.6723v-3.6017c0-.4777.1935-.9357.5378-1.2734.3444-.3378.8114-.5275 1.2984-.5275h3.6723v7.2034c-.001.9549-.3882 1.8705-1.0767 2.5457-.6885.6753-1.622 1.055-2.5956 1.056z" fill="#fff"/><defs><linearGradient id="paint0_linear_144_5747" x1="50" y1="0" x2="50" y2="100" gradientUnits="userSpaceOnUse"><stop stop-color="#B9EAFF"/><stop offset="1" stop-color="#EEFBFF"/></linearGradient></defs></svg>