<svg width="52" height="52" viewBox="0 0 52 52" fill="none" xmlns="http://www.w3.org/2000/svg"><circle cx="26" cy="26" r="25.5" stroke="#969CA0"/><path d="M26.6656 25.3343c-.0872-.0879-.1909-.1576-.3051-.2052a.93778.93778 0 00-.3606-.0721c-.1237 0-.2463.0245-.3605.0721-.1143.0476-.2179.1173-.3051.2052l-9.375 9.375c-.1765.1766-.2757.416-.2757.6656 0 .2497.0992.4891.2757.6657.1765.1765.416.2757.6656.2757.2497 0 .4891-.0992.6657-.2757l8.7093-8.7188 8.7094 8.7188c.0872.0878.1908.1576.3051.2052.1142.0476.2368.0721.3605.0721.1238 0 .2463-.0245.3606-.0721.1142-.0476.2179-.1174.3051-.2052.0878-.0872.1576-.1909.2052-.3051a.93778.93778 0 00.0721-.3606c0-.1237-.0245-.2463-.0721-.3605-.0476-.1142-.1174-.2179-.2052-.3051l-9.375-9.375z" fill="#969CA0"/><path d="M17.2906 26.6656l8.7093-8.7188 8.7094 8.7188c.0872.0878.1908.1576.3051.2052.1142.0476.2368.0721.3605.0721.1238 0 .2463-.0245.3606-.0721.1142-.0476.2179-.1174.3051-.2052.0878-.0872.1576-.1909.2052-.3051a.93778.93778 0 00.0721-.3606c0-.1237-.0245-.2463-.0721-.3605-.0476-.1142-.1174-.2179-.2052-.3051l-9.375-9.375c-.0872-.0879-.1909-.1576-.3051-.2052a.93778.93778 0 00-.3606-.0721c-.1237 0-.2463.0245-.3605.0721-.1143.0476-.2179.1173-.3051.2052l-9.375 9.375c-.1765.1766-.2757.416-.2757.6656 0 .2497.0992.4891.2757.6657.1765.1765.416.2757.6656.2757.2497 0 .4891-.0992.6657-.2757z" fill="#969CA0"/></svg>