<svg width="100" height="100" viewBox="0 0 100 100" fill="none" xmlns="http://www.w3.org/2000/svg"><rect width="100" height="100" rx="50" fill="url(#paint0_linear_132_5481)"/><path fill-rule="evenodd" clip-rule="evenodd" d="M29.4724 25c-.45 0-.8965.0172-1.3379.0552-.3079.0238-.5955.1626-.8057.3887-.2102.2262-.3276.5232-.3288.832v47.5C27 74.4517 27.5517 75 28.2362 75h3.7069c.3262.0014.6396-.1268.8714-.3563s.363-.5417.3648-.8678v-8.9414l5.0638 2.15c.6466.2758 1.4345.5655 2.2569.6724.8362.1086 1.7862.0379 2.669-.4966.7222-.4341 1.32-1.0474 1.7353-1.7806.4154-.7332.6342-1.5612.6354-2.4038v-3.6742c-.0019-.3262-.1331-.6383-.3649-.8678-.2318-.2296-.5452-.3577-.8714-.3563L40.5 56.8517c0-1.3534 1.2017-1.2241 2.569-1.2241h1.2344c.1617.0007.3219-.0305.4715-.0917.1497-.0613.2857-.1514.4005-.2652.1148-.1139.2061-.2492.2686-.3983.0625-.1491.095-.309.0957-.4707v-2.45h1.3965c1.9759 0 3.1534-2.181 2.0586-3.8103l-3.4551-5.138v-2.0775C45.5397 32.131 38.3465 25 29.4707 25h.0017zM41.831 43.9879c-.0009.2424-.0495.4823-.1432.7059-.0937.2236-.2305.4265-.4026.5972-.1721.1707-.3762.3058-.6006.3976-.2243.0917-.4646.1384-.707.1373-.2424.0011-.4827-.0456-.7071-.1373-.2243-.0918-.4284-.2269-.6005-.3976-.1722-.1707-.309-.3736-.4026-.5972a1.844262 1.844262 0 01-.1433-.7059c.0009-.2424.0496-.4822.1433-.7058.0936-.2236.2304-.4266.4026-.5973.1721-.1706.3762-.3057.6005-.3975.2244-.0918.4647-.1384.7071-.1373.2424-.0011.4827.0455.707.1373.2244.0918.4285.2269.6006.3975.1721.1707.3089.3737.4026.5973.0937.2236.1423.4634.1432.7058zm11.8845 15.6397c.6266-.367 1.146-.892 1.5063-1.5225.3604-.6305.549-1.3444.5472-2.0706 0-1.5397-.8276-2.8793-2.0518-3.5931l1.7414-2.9776c1.1454.6717 2.0948 1.6318 2.7536 2.7847.6589 1.1528 1.0042 2.4582 1.0016 3.786.0019 1.3278-.344 2.6331-1.0035 3.7856-.6594 1.1525-1.6094 2.1122-2.7551 2.7833l-1.7414-2.9758h.0017zm9.3104-3.5931c0-3.5638-1.5518-6.5276-3.6431-8.0397l2.0224-2.7931c3.1155 2.2535 5.0689 6.3311 5.0689 10.8328 0 4.5-1.9534 8.5793-5.0689 10.8345l-2.0224-2.7931c2.0913-1.5138 3.6431-4.4776 3.6431-8.0414z" fill="#fff"/><path fill-rule="evenodd" clip-rule="evenodd" d="M65.1287 68.4777c2.9758-2.3604 5.1551-6.9586 5.1551-12.4431s-2.1793-10.0828-5.1551-12.4414l2.1431-2.7017c3.9689 3.1465 6.4603 8.8414 6.4603 15.1431s-2.4914 11.9965-6.4603 15.1431l-2.1414-2.7h-.0017z" fill="#fff"/><defs><linearGradient id="paint0_linear_132_5481" x1="50" y1="0" x2="50" y2="100" gradientUnits="userSpaceOnUse"><stop stop-color="#B9EAFF"/><stop offset="1" stop-color="#EEFBFF"/></linearGradient></defs></svg>