<svg width="100" height="100" viewBox="0 0 100 100" fill="none" xmlns="http://www.w3.org/2000/svg"><rect width="100" height="100" rx="50" fill="url(#paint0_linear_132_5559)"/><path d="M47.4287 32.4468h5.1429v3.1915h-5.1429v-3.1915zM43.8287 35.6382c.8521 0 1.5429-1.1907 1.5429-2.6595 0-1.4689-.6908-2.6596-1.5429-2.6596s-1.5428 1.1907-1.5428 2.6596c0 1.4688.6907 2.6595 1.5428 2.6595zM56.1715 35.6382c.8521 0 1.5429-1.1907 1.5429-2.6595 0-1.4689-.6908-2.6596-1.5429-2.6596s-1.5428 1.1907-1.5428 2.6596c0 1.4688.6907 2.6595 1.5428 2.6595z" fill="#fff"/><path d="M62 45.8333H52v-4.1666l6-.0167c1.5889.0011 3.1132-.6547 4.2382-1.8235 1.1249-1.1687 1.7586-2.7548 1.7618-4.4098V31.25c-.0021-1.6569-.6349-3.2454-1.7597-4.417C61.1155 25.6614 59.5906 25.0022 58 25H42c-1.5906.0022-3.1155.6614-4.2403 1.833-1.1248 1.1716-1.7576 2.7601-1.7597 4.417v4.1667c.0021 1.6569.6349 3.2453 1.7597 4.4169 1.1248 1.1717 2.6497 1.8309 4.2403 1.8331h6v4.1666H38c-1.5905.0028-3.1151.6621-4.2397 1.8336-1.1247 1.1715-1.7577 2.7597-1.7603 4.4164V68.75c.0021 1.6569.6349 3.2453 1.7597 4.417C34.8845 74.3386 36.4094 74.9978 38 75h24c1.5906-.0022 3.1155-.6614 4.2403-1.833 1.1248-1.1717 1.7576-2.7601 1.7597-4.417V52.0833c-.0026-1.6567-.6356-3.2449-1.7603-4.4164-1.1246-1.1715-2.6492-1.8308-4.2397-1.8336zM42 37.5c-.5303-.0006-1.0387-.2202-1.4136-.6108-.375-.3906-.5859-.9202-.5864-1.4725V31.25c.0005-.5524.2114-1.082.5864-1.4725.3749-.3906.8833-.6103 1.4136-.6108l15.984.0041c.5315-.0011 1.0419.2169 1.4197.6065.3777.3896.5921.919.5963 1.4727v4.1667c-.0042.554-.2185 1.0839-.5961 1.4741-.3776.3902-.888.6092-1.4199.6092H42zm22 31.25c-.0005.5523-.2114 1.0819-.5864 1.4725-.3749.3906-.8833.6103-1.4136.6108H38c-.5303-.0005-1.0387-.2202-1.4136-.6108-.375-.3906-.5859-.9202-.5864-1.4725V52.0833c.0011-.5522.2121-1.0814.587-1.4719.3748-.3905.8829-.6103 1.413-.6114h24c.5303.0005 1.0387.2202 1.4136.6108.375.3906.5859.9202.5864 1.4725V68.75z" fill="#fff"/><path d="M61.1859 58.8653v-2.4822h-2.4857v-2.4823c-.002-.6577-.2645-1.288-.7303-1.753-.4657-.4651-1.0968-.7273-1.7554-.7293h-2.4858v-2.4822H51.243v2.4822h-2.4857v-2.4822h-2.4857v2.4822h-2.4857c-.6587.002-1.2898.2642-1.7555.7293-.4657.465-.7283 1.0953-.7302 1.753v2.4823h-2.4857v2.4822h2.4857v2.4823h-2.4857v2.4823h2.4857v2.4823c.0019.6577.2645 1.2879.7302 1.753.4657.4651 1.0968.7273 1.7555.7292h2.4857v2.4823h2.4857v-2.4823h2.4857v2.4823h2.4857v-2.4823h2.4858c.6586-.0019 1.2897-.2641 1.7554-.7292.4658-.4651.7283-1.0953.7303-1.753v-2.4823h2.4857v-2.4823h-2.4857v-2.4823h2.4857zm-4.9714 7.4469H43.7859V53.9008h12.4286v12.4114z" fill="#fff"/><path d="M49.2059 55.1418h-1.6716l-2.4982 9.9291h1.2764l.5767-2.3271h2.8785l.5618 2.3271h1.3199l-2.4435-9.9291zm-2.1489 6.6078l1.2652-5.4287h.0572l1.2217 5.4287H47.057zm5.7321-6.6078h1.2428v9.9291h-1.2428v-9.9291z" fill="#fff"/><defs><linearGradient id="paint0_linear_132_5559" x1="50" y1="0" x2="50" y2="100" gradientUnits="userSpaceOnUse"><stop stop-color="#B9EAFF"/><stop offset="1" stop-color="#EEFBFF"/></linearGradient></defs></svg>