<svg width="150" height="147" viewBox="0 0 150 147" fill="none" xmlns="http://www.w3.org/2000/svg"><path d="M16.5535 10H11.5v5.0412h5.0535V10zM21.607 10h-5.0535v5.0412h5.0535V10z" fill="#040000"/><path d="M26.6604 10h-5.0535v5.0412h5.0535V10zM31.7139 10h-5.0535v5.0412h5.0535V10zM36.7676 10h-5.0535v5.0412h5.0535V10zM41.8211 10h-5.0535v5.0412h5.0535V10z" fill="#040000"/><path d="M46.8745 10H41.821v5.0412h5.0535V10zM77.1834 10h-5.0535v5.0412h5.0535V10zM97.3975 10H92.344v5.0412h5.0535V10zM107.504 10h-5.053v5.0412h5.053V10zM112.558 10h-5.053v5.0412h5.053V10z" fill="#040000"/><path d="M117.612 10h-5.054v5.0412h5.054V10zM122.665 10h-5.053v5.0412h5.053V10z" fill="#040000"/><path d="M127.719 10h-5.054v5.0412h5.054V10zM132.772 10h-5.053v5.0412h5.053V10zM137.825 10h-5.053v5.0412h5.053V10zM16.5535 15.0412H11.5v5.0411h5.0535v-5.0411zM46.8745 15.0412H41.821v5.0411h5.0535v-5.0411zM62.023 15.0412h-5.0535v5.0411h5.0535v-5.0411zM82.2371 15.0412h-5.0535v5.0411h5.0535v-5.0411zM92.344 15.0412h-5.0535v5.0411h5.0535v-5.0411zM107.504 15.0412h-5.053v5.0411h5.053v-5.0411zM137.825 15.0412h-5.053v5.0411h5.053v-5.0411zM16.5535 20.0823H11.5v5.0412h5.0535v-5.0412zM26.6604 20.0823h-5.0535v5.0412h5.0535v-5.0412zM31.7139 20.0823h-5.0535v5.0412h5.0535v-5.0412zM36.7676 20.0823h-5.0535v5.0412h5.0535v-5.0412zM46.8745 20.0823H41.821v5.0412h5.0535v-5.0412zM56.9815 20.0823H51.928v5.0412h5.0535v-5.0412zM72.1299 20.0823h-5.0535v5.0412h5.0535v-5.0412zM77.1834 20.0823h-5.0535v5.0412h5.0535v-5.0412zM87.2906 20.0823h-5.0535v5.0412h5.0535v-5.0412zM97.3975 20.0823H92.344v5.0412h5.0535v-5.0412zM107.504 20.0823h-5.053v5.0412h5.053v-5.0412zM117.612 20.0823h-5.054v5.0412h5.054v-5.0412zM122.665 20.0823h-5.053v5.0412h5.053v-5.0412z" fill="#040000"/><path d="M127.719 20.0823h-5.054v5.0412h5.054v-5.0412zM137.825 20.0823h-5.053v5.0412h5.053v-5.0412zM16.5535 25.1235H11.5v5.0412h5.0535v-5.0412zM26.6604 25.1235h-5.0535v5.0412h5.0535v-5.0412zM31.7139 25.1235h-5.0535v5.0412h5.0535v-5.0412zM36.7676 25.1235h-5.0535v5.0412h5.0535v-5.0412zM46.8745 25.1235H41.821v5.0412h5.0535v-5.0412zM56.9815 25.1235H51.928v5.0412h5.0535v-5.0412z" fill="#040000"/><path d="M62.023 25.1235h-5.0535v5.0412h5.0535v-5.0412z" fill="#040000"/><path d="M67.0765 25.1235h-5.0536v5.0412h5.0536v-5.0412z" fill="#040000"/><path d="M72.1299 25.1235h-5.0535v5.0412h5.0535v-5.0412zM77.1834 25.1235h-5.0535v5.0412h5.0535v-5.0412zM82.2371 25.1235h-5.0535v5.0412h5.0535v-5.0412zM87.2906 25.1235h-5.0535v5.0412h5.0535v-5.0412zM107.504 25.1235h-5.053v5.0412h5.053v-5.0412zM117.612 25.1235h-5.054v5.0412h5.054v-5.0412zM122.665 25.1235h-5.053v5.0412h5.053v-5.0412z" fill="#040000"/><path d="M127.719 25.1235h-5.054v5.0412h5.054v-5.0412zM137.825 25.1235h-5.053v5.0412h5.053v-5.0412zM16.5535 30.1647H11.5v5.0411h5.0535v-5.0411zM26.6604 30.1647h-5.0535v5.0411h5.0535v-5.0411zM31.7139 30.1647h-5.0535v5.0411h5.0535v-5.0411zM36.7676 30.1647h-5.0535v5.0411h5.0535v-5.0411zM46.8745 30.1647H41.821v5.0411h5.0535v-5.0411zM56.9815 30.1647H51.928v5.0411h5.0535v-5.0411z" fill="#040000"/><path d="M62.023 30.1647h-5.0535v5.0411h5.0535v-5.0411zM72.1299 30.1647h-5.0535v5.0411h5.0535v-5.0411zM82.2371 30.1647h-5.0535v5.0411h5.0535v-5.0411zM107.504 30.1647h-5.053v5.0411h5.053v-5.0411zM117.612 30.1647h-5.054v5.0411h5.054v-5.0411zM122.665 30.1647h-5.053v5.0411h5.053v-5.0411z" fill="#040000"/><path d="M127.719 30.1647h-5.054v5.0411h5.054v-5.0411zM137.825 30.1647h-5.053v5.0411h5.053v-5.0411zM16.5535 35.2059H11.5v5.0411h5.0535v-5.0411zM46.8745 35.2059H41.821v5.0411h5.0535v-5.0411zM56.9815 35.2059H51.928v5.0411h5.0535v-5.0411z" fill="#040000"/><path d="M62.023 35.2059h-5.0535v5.0411h5.0535v-5.0411zM82.2371 35.2059h-5.0535v5.0411h5.0535v-5.0411zM87.2906 35.2059h-5.0535v5.0411h5.0535v-5.0411z" fill="#040000"/><path d="M92.344 35.2059h-5.0535v5.0411h5.0535v-5.0411zM97.3975 35.2059H92.344v5.0411h5.0535v-5.0411zM107.504 35.2059h-5.053v5.0411h5.053v-5.0411zM137.825 35.2059h-5.053v5.0411h5.053v-5.0411zM16.5535 40.247H11.5v5.0412h5.0535V40.247zM21.607 40.247h-5.0535v5.0412h5.0535V40.247z" fill="#040000"/><path d="M26.6604 40.247h-5.0535v5.0412h5.0535V40.247zM31.7139 40.247h-5.0535v5.0412h5.0535V40.247zM36.7676 40.247h-5.0535v5.0412h5.0535V40.247zM41.8211 40.247h-5.0535v5.0412h5.0535V40.247z" fill="#040000"/><path d="M46.8745 40.247H41.821v5.0412h5.0535V40.247zM56.9815 40.247H51.928v5.0412h5.0535V40.247zM67.0765 40.247h-5.0536v5.0412h5.0536V40.247zM77.1834 40.247h-5.0535v5.0412h5.0535V40.247zM87.2906 40.247h-5.0535v5.0412h5.0535V40.247zM97.3975 40.247H92.344v5.0412h5.0535V40.247zM107.504 40.247h-5.053v5.0412h5.053V40.247zM112.558 40.247h-5.053v5.0412h5.053V40.247z" fill="#040000"/><path d="M117.612 40.247h-5.054v5.0412h5.054V40.247zM122.665 40.247h-5.053v5.0412h5.053V40.247z" fill="#040000"/><path d="M127.719 40.247h-5.054v5.0412h5.054V40.247zM132.772 40.247h-5.053v5.0412h5.053V40.247zM137.825 40.247h-5.053v5.0412h5.053V40.247zM56.9815 45.2882H51.928v5.0412h5.0535v-5.0412zM72.1299 45.2882h-5.0535v5.0412h5.0535v-5.0412zM87.2906 45.2882h-5.0535v5.0412h5.0535v-5.0412z" fill="#040000"/><path d="M92.344 45.2882h-5.0535v5.0412h5.0535v-5.0412zM16.5535 50.3293H11.5v5.0412h5.0535v-5.0412zM26.6604 50.3293h-5.0535v5.0412h5.0535v-5.0412zM31.7139 50.3293h-5.0535v5.0412h5.0535v-5.0412zM36.7676 50.3293h-5.0535v5.0412h5.0535v-5.0412zM41.8211 50.3293h-5.0535v5.0412h5.0535v-5.0412z" fill="#040000"/><path d="M46.8745 50.3293H41.821v5.0412h5.0535v-5.0412zM62.023 50.3293h-5.0535v5.0412h5.0535v-5.0412zM72.1299 50.3293h-5.0535v5.0412h5.0535v-5.0412zM82.2371 50.3293h-5.0535v5.0412h5.0535v-5.0412zM87.2906 50.3293h-5.0535v5.0412h5.0535v-5.0412zM97.3975 50.3293H92.344v5.0412h5.0535v-5.0412zM107.504 50.3293h-5.053v5.0412h5.053v-5.0412zM112.558 50.3293h-5.053v5.0412h5.053v-5.0412z" fill="#040000"/><path d="M117.612 50.3293h-5.054v5.0412h5.054v-5.0412zM122.665 50.3293h-5.053v5.0412h5.053v-5.0412z" fill="#040000"/><path d="M127.719 50.3293h-5.054v5.0412h5.054v-5.0412zM21.607 55.3705h-5.0535v5.0412h5.0535v-5.0412zM36.7676 55.3705h-5.0535v5.0412h5.0535v-5.0412zM41.8211 55.3705h-5.0535v5.0412h5.0535v-5.0412zM51.928 55.3705h-5.0535v5.0412h5.0535v-5.0412zM56.9815 55.3705H51.928v5.0412h5.0535v-5.0412zM77.1834 55.3705h-5.0535v5.0412h5.0535v-5.0412zM82.2371 55.3705h-5.0535v5.0412h5.0535v-5.0412zM97.3975 55.3705H92.344v5.0412h5.0535v-5.0412zM132.772 55.3705h-5.053v5.0412h5.053v-5.0412zM16.5535 60.4117H11.5v5.0412h5.0535v-5.0412zM21.607 60.4117h-5.0535v5.0412h5.0535v-5.0412z" fill="#040000"/><path d="M26.6604 60.4117h-5.0535v5.0412h5.0535v-5.0412zM31.7139 60.4117h-5.0535v5.0412h5.0535v-5.0412zM36.7676 60.4117h-5.0535v5.0412h5.0535v-5.0412zM41.8211 60.4117h-5.0535v5.0412h5.0535v-5.0412z" fill="#040000"/><path d="M46.8745 60.4117H41.821v5.0412h5.0535v-5.0412zM56.9815 60.4117H51.928v5.0412h5.0535v-5.0412z" fill="#040000"/><path d="M62.023 60.4117h-5.0535v5.0412h5.0535v-5.0412zM72.1299 60.4117h-5.0535v5.0412h5.0535v-5.0412zM87.2906 60.4117h-5.0535v5.0412h5.0535v-5.0412z" fill="#040000"/><path d="M92.344 60.4117h-5.0535v5.0412h5.0535v-5.0412zM102.451 60.4117h-5.0535v5.0412h5.0535v-5.0412zM112.558 60.4117h-5.053v5.0412h5.053v-5.0412z" fill="#040000"/><path d="M117.612 60.4117h-5.054v5.0412h5.054v-5.0412zM122.665 60.4117h-5.053v5.0412h5.053v-5.0412zM132.772 60.4117h-5.053v5.0412h5.053v-5.0412zM137.825 60.4117h-5.053v5.0412h5.053v-5.0412zM26.6604 65.4529h-5.0535v5.0411h5.0535v-5.0411zM31.7139 65.4529h-5.0535v5.0411h5.0535v-5.0411zM36.7676 65.4529h-5.0535v5.0411h5.0535v-5.0411zM41.8211 65.4529h-5.0535v5.0411h5.0535v-5.0411zM51.928 65.4529h-5.0535v5.0411h5.0535v-5.0411zM62.023 65.4529h-5.0535v5.0411h5.0535v-5.0411zM77.1834 65.4529h-5.0535v5.0411h5.0535v-5.0411zM87.2906 65.4529h-5.0535v5.0411h5.0535v-5.0411z" fill="#040000"/><path d="M92.344 65.4529h-5.0535v5.0411h5.0535v-5.0411zM97.3975 65.4529H92.344v5.0411h5.0535v-5.0411zM137.825 65.4529h-5.053v5.0411h5.053v-5.0411zM26.6604 70.494h-5.0535v5.0412h5.0535V70.494zM36.7676 70.494h-5.0535v5.0412h5.0535V70.494zM46.8745 70.494H41.821v5.0412h5.0535V70.494zM56.9815 70.494H51.928v5.0412h5.0535V70.494zM77.1834 70.494h-5.0535v5.0412h5.0535V70.494zM82.2371 70.494h-5.0535v5.0412h5.0535V70.494zM92.344 70.494h-5.0535v5.0412h5.0535V70.494zM102.451 70.494h-5.0535v5.0412h5.0535V70.494zM107.504 70.494h-5.053v5.0412h5.053V70.494zM112.558 70.494h-5.053v5.0412h5.053V70.494z" fill="#040000"/><path d="M117.612 70.494h-5.054v5.0412h5.054V70.494zM127.719 70.494h-5.054v5.0412h5.054V70.494zM132.772 70.494h-5.053v5.0412h5.053V70.494zM137.825 70.494h-5.053v5.0412h5.053V70.494zM21.607 75.5352h-5.0535v5.0412h5.0535v-5.0412z" fill="#040000"/><path d="M26.6604 75.5352h-5.0535v5.0412h5.0535v-5.0412zM36.7676 75.5352h-5.0535v5.0412h5.0535v-5.0412zM41.8211 75.5352h-5.0535v5.0412h5.0535v-5.0412zM56.9815 75.5352H51.928v5.0412h5.0535v-5.0412zM77.1834 75.5352h-5.0535v5.0412h5.0535v-5.0412zM82.2371 75.5352h-5.0535v5.0412h5.0535v-5.0412zM97.3975 75.5352H92.344v5.0412h5.0535v-5.0412zM102.451 75.5352h-5.0535v5.0412h5.0535v-5.0412zM112.558 75.5352h-5.053v5.0412h5.053v-5.0412zM122.665 75.5352h-5.053v5.0412h5.053v-5.0412zM132.772 75.5352h-5.053v5.0412h5.053v-5.0412zM21.607 80.5764h-5.0535v5.0411h5.0535v-5.0411zM31.7139 80.5764h-5.0535v5.0411h5.0535v-5.0411zM36.7676 80.5764h-5.0535v5.0411h5.0535v-5.0411zM46.8745 80.5764H41.821v5.0411h5.0535v-5.0411zM51.928 80.5764h-5.0535v5.0411h5.0535v-5.0411zM62.023 80.5764h-5.0535v5.0411h5.0535v-5.0411zM82.2371 80.5764h-5.0535v5.0411h5.0535v-5.0411zM87.2906 80.5764h-5.0535v5.0411h5.0535v-5.0411z" fill="#040000"/><path d="M92.344 80.5764h-5.0535v5.0411h5.0535v-5.0411zM107.504 80.5764h-5.053v5.0411h5.053v-5.0411zM112.558 80.5764h-5.053v5.0411h5.053v-5.0411z" fill="#040000"/><path d="M117.612 80.5764h-5.054v5.0411h5.054v-5.0411zM122.665 80.5764h-5.053v5.0411h5.053v-5.0411zM132.772 80.5764h-5.053v5.0411h5.053v-5.0411zM137.825 80.5764h-5.053v5.0411h5.053v-5.0411zM21.607 85.6176h-5.0535v5.0411h5.0535v-5.0411zM62.023 85.6176h-5.0535v5.0411h5.0535v-5.0411z" fill="#040000"/><path d="M67.0765 85.6176h-5.0536v5.0411h5.0536v-5.0411z" fill="#040000"/><path d="M72.1299 85.6176h-5.0535v5.0411h5.0535v-5.0411zM87.2906 85.6176h-5.0535v5.0411h5.0535v-5.0411z" fill="#040000"/><path d="M92.344 85.6176h-5.0535v5.0411h5.0535v-5.0411zM97.3975 85.6176H92.344v5.0411h5.0535v-5.0411zM107.504 85.6176h-5.053v5.0411h5.053v-5.0411zM112.558 85.6176h-5.053v5.0411h5.053v-5.0411z" fill="#040000"/><path d="M117.612 85.6176h-5.054v5.0411h5.054v-5.0411zM137.825 85.6176h-5.053v5.0411h5.053v-5.0411zM21.607 90.6467h-5.0535v5.0411h5.0535v-5.0411zM31.7139 90.6467h-5.0535v5.0411h5.0535v-5.0411zM36.7676 90.6467h-5.0535v5.0411h5.0535v-5.0411zM41.8211 90.6467h-5.0535v5.0411h5.0535v-5.0411z" fill="#040000"/><path d="M46.8745 90.6467H41.821v5.0411h5.0535v-5.0411zM62.023 90.6467h-5.0535v5.0411h5.0535v-5.0411z" fill="#040000"/><path d="M67.0765 90.6467h-5.0536v5.0411h5.0536v-5.0411zM77.1834 90.6467h-5.0535v5.0411h5.0535v-5.0411zM82.2371 90.6467h-5.0535v5.0411h5.0535v-5.0411zM87.2906 90.6467h-5.0535v5.0411h5.0535v-5.0411z" fill="#040000"/><path d="M92.344 90.6467h-5.0535v5.0411h5.0535v-5.0411zM97.3975 90.6467H92.344v5.0411h5.0535v-5.0411zM102.451 90.6467h-5.0535v5.0411h5.0535v-5.0411zM107.504 90.6467h-5.053v5.0411h5.053v-5.0411zM112.558 90.6467h-5.053v5.0411h5.053v-5.0411z" fill="#040000"/><path d="M117.612 90.6467h-5.054v5.0411h5.054v-5.0411zM127.719 90.6467h-5.054v5.0411h5.054v-5.0411zM56.9815 95.6879H51.928v5.0411h5.0535v-5.0411z" fill="#040000"/><path d="M62.023 95.6879h-5.0535v5.0411h5.0535v-5.0411zM72.1299 95.6879h-5.0535v5.0411h5.0535v-5.0411zM87.2906 95.6879h-5.0535v5.0411h5.0535v-5.0411z" fill="#040000"/><path d="M92.344 95.6879h-5.0535v5.0411h5.0535v-5.0411zM97.3975 95.6879H92.344v5.0411h5.0535v-5.0411zM117.612 95.6879h-5.054v5.0411h5.054v-5.0411zM122.665 95.6879h-5.053v5.0411h5.053v-5.0411zM16.5535 100.729H11.5v5.041h5.0535v-5.041zM21.607 100.729h-5.0535v5.041h5.0535v-5.041z" fill="#040000"/><path d="M26.6604 100.729h-5.0535v5.041h5.0535v-5.041zM31.7139 100.729h-5.0535v5.041h5.0535v-5.041zM36.7676 100.729h-5.0535v5.041h5.0535v-5.041zM41.8211 100.729h-5.0535v5.041h5.0535v-5.041z" fill="#040000"/><path d="M46.8745 100.729H41.821v5.041h5.0535v-5.041zM62.023 100.729h-5.0535v5.041h5.0535v-5.041z" fill="#040000"/><path d="M67.0765 100.729h-5.0536v5.041h5.0536v-5.041zM77.1834 100.729h-5.0535v5.041h5.0535v-5.041zM82.2371 100.729h-5.0535v5.041h5.0535v-5.041zM97.3975 100.729H92.344v5.041h5.0535v-5.041zM107.504 100.729h-5.053v5.041h5.053v-5.041zM117.612 100.729h-5.054v5.041h5.054v-5.041zM127.719 100.729h-5.054v5.041h5.054v-5.041zM132.772 100.729h-5.053v5.041h5.053v-5.041zM137.825 100.729h-5.053v5.041h5.053v-5.041zM16.5535 105.77H11.5v5.041h5.0535v-5.041zM46.8745 105.77H41.821v5.041h5.0535v-5.041zM56.9815 105.77H51.928v5.041h5.0535v-5.041z" fill="#040000"/><path d="M62.023 105.77h-5.0535v5.041h5.0535v-5.041zM72.1299 105.77h-5.0535v5.041h5.0535v-5.041zM97.3975 105.77H92.344v5.041h5.0535v-5.041zM117.612 105.77h-5.054v5.041h5.054v-5.041zM122.665 105.77h-5.053v5.041h5.053v-5.041zM16.5535 110.811H11.5v5.042h5.0535v-5.042zM26.6604 110.811h-5.0535v5.042h5.0535v-5.042zM31.7139 110.811h-5.0535v5.042h5.0535v-5.042zM36.7676 110.811h-5.0535v5.042h5.0535v-5.042zM46.8745 110.811H41.821v5.042h5.0535v-5.042zM56.9815 110.811H51.928v5.042h5.0535v-5.042z" fill="#040000"/><path d="M62.023 110.811h-5.0535v5.042h5.0535v-5.042z" fill="#040000"/><path d="M67.0765 110.811h-5.0536v5.042h5.0536v-5.042z" fill="#040000"/><path d="M72.1299 110.811h-5.0535v5.042h5.0535v-5.042zM77.1834 110.811h-5.0535v5.042h5.0535v-5.042zM82.2371 110.811h-5.0535v5.042h5.0535v-5.042zM92.344 110.811h-5.0535v5.042h5.0535v-5.042zM97.3975 110.811H92.344v5.042h5.0535v-5.042zM102.451 110.811h-5.0535v5.042h5.0535v-5.042zM107.504 110.811h-5.053v5.042h5.053v-5.042zM112.558 110.811h-5.053v5.042h5.053v-5.042z" fill="#040000"/><path d="M117.612 110.811h-5.054v5.042h5.054v-5.042zM127.719 110.811h-5.054v5.042h5.054v-5.042zM16.5535 115.853H11.5v5.041h5.0535v-5.041zM26.6604 115.853h-5.0535v5.041h5.0535v-5.041zM31.7139 115.853h-5.0535v5.041h5.0535v-5.041zM36.7676 115.853h-5.0535v5.041h5.0535v-5.041zM46.8745 115.853H41.821v5.041h5.0535v-5.041zM56.9815 115.853H51.928v5.041h5.0535v-5.041z" fill="#040000"/><path d="M62.023 115.853h-5.0535v5.041h5.0535v-5.041z" fill="#040000"/><path d="M67.0765 115.853h-5.0536v5.041h5.0536v-5.041z" fill="#040000"/><path d="M72.1299 115.853h-5.0535v5.041h5.0535v-5.041zM82.2371 115.853h-5.0535v5.041h5.0535v-5.041zM92.344 115.853h-5.0535v5.041h5.0535v-5.041zM97.3975 115.853H92.344v5.041h5.0535v-5.041zM102.451 115.853h-5.0535v5.041h5.0535v-5.041zM107.504 115.853h-5.053v5.041h5.053v-5.041zM117.612 115.853h-5.054v5.041h5.054v-5.041zM122.665 115.853h-5.053v5.041h5.053v-5.041z" fill="#040000"/><path d="M127.719 115.853h-5.054v5.041h5.054v-5.041zM132.772 115.853h-5.053v5.041h5.053v-5.041zM137.825 115.853h-5.053v5.041h5.053v-5.041zM16.5535 120.894H11.5v5.041h5.0535v-5.041zM26.6604 120.894h-5.0535v5.041h5.0535v-5.041zM31.7139 120.894h-5.0535v5.041h5.0535v-5.041zM36.7676 120.894h-5.0535v5.041h5.0535v-5.041zM46.8745 120.894H41.821v5.041h5.0535v-5.041zM56.9815 120.894H51.928v5.041h5.0535v-5.041zM67.0765 120.894h-5.0536v5.041h5.0536v-5.041zM82.2371 120.894h-5.0535v5.041h5.0535v-5.041zM87.2906 120.894h-5.0535v5.041h5.0535v-5.041zM97.3975 120.894H92.344v5.041h5.0535v-5.041zM122.665 120.894h-5.053v5.041h5.053v-5.041z" fill="#040000"/><path d="M127.719 120.894h-5.054v5.041h5.054v-5.041zM137.825 120.894h-5.053v5.041h5.053v-5.041zM16.5535 125.935H11.5v5.041h5.0535v-5.041zM46.8745 125.935H41.821v5.041h5.0535v-5.041zM67.0765 125.935h-5.0536v5.041h5.0536v-5.041zM87.2906 125.935h-5.0535v5.041h5.0535v-5.041z" fill="#040000"/><path d="M92.344 125.935h-5.0535v5.041h5.0535v-5.041zM97.3975 125.935H92.344v5.041h5.0535v-5.041zM102.451 125.935h-5.0535v5.041h5.0535v-5.041zM112.558 125.935h-5.053v5.041h5.053v-5.041z" fill="#040000"/><path d="M117.612 125.935h-5.054v5.041h5.054v-5.041zM122.665 125.935h-5.053v5.041h5.053v-5.041zM137.825 125.935h-5.053v5.041h5.053v-5.041zM16.5535 130.976H11.5v5.041h5.0535v-5.041zM21.607 130.976h-5.0535v5.041h5.0535v-5.041z" fill="#040000"/><path d="M26.6604 130.976h-5.0535v5.041h5.0535v-5.041zM31.7139 130.976h-5.0535v5.041h5.0535v-5.041zM36.7676 130.976h-5.0535v5.041h5.0535v-5.041zM41.8211 130.976h-5.0535v5.041h5.0535v-5.041z" fill="#040000"/><path d="M46.8745 130.976H41.821v5.041h5.0535v-5.041zM56.9815 130.976H51.928v5.041h5.0535v-5.041zM77.1834 130.976h-5.0535v5.041h5.0535v-5.041zM82.2371 130.976h-5.0535v5.041h5.0535v-5.041zM87.2906 130.976h-5.0535v5.041h5.0535v-5.041zM102.451 130.976h-5.0535v5.041h5.0535v-5.041zM112.558 130.976h-5.053v5.041h5.053v-5.041z" fill="#040000"/><path d="M117.612 130.976h-5.054v5.041h5.054v-5.041zM122.665 130.976h-5.053v5.041h5.053v-5.041z" fill="#040000"/><path d="M127.719 130.976h-5.054v5.041h5.054v-5.041zM132.772 130.976h-5.053v5.041h5.053v-5.041zM137.825 130.976h-5.053v5.041h5.053v-5.041z" fill="#040000"/></svg>